<svg xmlns="http://www.w3.org/2000/svg" width="640.749" height="362.701" viewBox="0 0 640.749 362.701">
    <defs>
        <style>
            .cls-1{fill:#eabbab}.cls-2{opacity:.15}.cls-3{fill:#1a1820}.cls-4{fill:#112f41}.cls-5{fill:#091821}.cls-6{opacity:.1}.cls-7{fill:#212a70}.cls-8{fill:#ccc}.cls-57,.cls-8{opacity:.5}.cls-9{fill:#101538}.cls-10{fill:#e3ac9a}.cls-11{fill:#f2f2f2}.cls-11,.cls-61{opacity:.2}.cls-12{fill:#6776e6}.cls-13,.cls-47{fill:#4154e0}.cls-14{fill:#dfe5fe}.cls-15{fill:#bfcbfe}.cls-16{fill:#6161db}.cls-17{fill:#eef2fe}.cls-18{fill:#6b6bf9}.cls-19{fill:#f0beb4}.cls-20{fill:#6262df}.cls-21{fill:#fff}.cls-22{fill:#8d98ec}.cls-23{fill:#d9ddf9}.cls-24{fill:#b3bbf3}.cls-25{fill:#e8ebfb}.cls-26{fill:#d1d6f8}.cls-27{fill:#c2c9f5}.cls-28{fill:#e1e4fa}.cls-29{fill:#f0f1fd}.cls-30{fill:#f7f8fc}.cls-31{fill:#c7cfe7}.cls-32{fill:#7a83a1}.cls-33{fill:#313fa8}.cls-34{fill:#5f7dfc}.cls-35{fill:#cdd7fd}.cls-36,.cls-63{fill:#d02f45}.cls-37{fill:#fdf3fd}.cls-38{fill:#fffeff}.cls-39{fill:#3d4393}.cls-40{fill:#d1d4fc}.cls-41{fill:#bebedb}.cls-42{fill:#f4f9f8}.cls-43{fill:#cbcbe2}.cls-44{fill:#e5e5f1}.cls-45{fill:#d8d8e9}.cls-46{fill:#a2afd7}.cls-47{opacity:0}.cls-48{fill:#0d2331}.cls-49{fill:#f7c8b3}.cls-50,.cls-61{fill:#ef5a29}.cls-50{opacity:.25}.cls-51{fill:#2c1c28}.cls-52{fill:#e1786e}.cls-53{fill:#e6a38c}.cls-54{fill:#ecb66c}.cls-55{fill:#f9c170}.cls-56{fill:#b9babd}.cls-57{fill:#e0ac68}.cls-58{fill:#f4fafc}.cls-59{fill:#192540}.cls-60,.cls-62{fill:#00365b}.cls-62,.cls-63{fill-rule:evenodd}
        </style>
    </defs>
    <g id="Group_4451" data-name="Group 4451">
        <g id="Group_4373" data-name="Group 4373" transform="translate(360.481 3.791)">
            <g id="Group_4357" data-name="Group 4357" transform="translate(43.927 120.649)">
                <g id="Group_4346" data-name="Group 4346" transform="translate(54.595 138.148)">
                    <g id="Group_4341" data-name="Group 4341">
                        <g id="Group_4340" data-name="Group 4340">
                            <g id="Group_4339" data-name="Group 4339">
                                <g id="Group_4338" data-name="Group 4338">
                                    <path id="Path_5081" d="M1003.4 547.6c.84 15.828 1.88 35.314 2.366 43.859.173 3.048 1.423 12.951 2.181 14.512a10.471 10.471 0 0 0 2.012 2.807l7.542 7.562-5.182.345h-3.1l-11.462-5.762-2.024-18.972-6.915-44.351z" class="cls-1" data-name="Path 5081" transform="translate(-988.818 -547.597)"/>
                                </g>
                            </g>
                        </g>
                    </g>
                    <g id="Group_4345" class="cls-2" data-name="Group 4345" transform="translate(.001)">
                        <g id="Group_4344" data-name="Group 4344">
                            <g id="Group_4343" data-name="Group 4343">
                                <g id="Group_4342" data-name="Group 4342">
                                    <path id="Path_5082" d="M994.99 587.178l-6.171-39.578h14.581c.607 11.433 1.246 23.427 1.777 33.175z" data-name="Path 5082" transform="translate(-988.819 -547.597)"/>
                                </g>
                            </g>
                        </g>
                    </g>
                    <path id="Path_5083" d="M996.833 602.208l-.582.362.675 8.423 4.343 3.021.654-1 1.3 1.807a7.552 7.552 0 0 0 1.814 2.181l7.136 4.437a3.92 3.92 0 0 0 .847.473c1.353.547 5.438 2.341 8.232 1.487 2.136-.654 1.613-3.138 1.2-3.635a56.043 56.043 0 0 0-5.706-6.577 170.652 170.652 0 0 1-5.365-5.59 6.176 6.176 0 0 1-.942-1.352c-.338-.656-.949-1.832-1.991-3.8a2 2 0 0 0-1.968-1.077l-1.73.21a2.946 2.946 0 0 0-2.447 1.824 8.2 8.2 0 0 0-.3 2.608c-2.166-.51-5.103-2.355-5.17-3.802z" class="cls-3" data-name="Path 5083" transform="translate(-988.818 -547.597)"/>
                </g>
                <g id="Group_4353" data-name="Group 4353" transform="translate(0 138.148)">
                    <g id="Group_4352" data-name="Group 4352" transform="translate(3.633)">
                        <g id="Group_4351" data-name="Group 4351">
                            <g id="Group_4350" data-name="Group 4350">
                                <g id="Group_4349" data-name="Group 4349">
                                    <g id="Group_4347" data-name="Group 4347">
                                        <path id="Path_5084" d="M954.494 606.519c1.233-.962 1.994-4.258 2.452-7.9a47.942 47.942 0 0 0 .368-7.218c-.475-8.5-1.846-27.989-3.09-43.8h13.4v44.489l.5 18.926-30.262 2.227s14.31-4.912 16.632-6.724z" class="cls-1" data-name="Path 5084" transform="translate(-937.856 -547.597)"/>
                                    </g>
                                    <g id="Group_4348" class="cls-2" data-name="Group 4348" transform="translate(16.199)">
                                        <path id="Path_5085" d="M957.293 587.329c-.762-9.725-1.968-28.276-2.88-39.732h12.336v7.372l1.479 26.019z" data-name="Path 5085" transform="translate(-954.413 -547.597)"/>
                                    </g>
                                </g>
                            </g>
                        </g>
                    </g>
                    <path id="Path_5086" d="M955.557 601.073s-5.658 5.117-6.394 5.958c-.674.77-5.317 2.251-8.605 3.3-4.817 1.534-5.054 2.492-5.961 4.573a.416.416 0 0 0-.372.457l.076.843s14.1-.3 19.74-1.213c0 0 4.433-3.357 4.922-.4l11.494-.693-.294-3.253-.581-.05a23.54 23.54 0 0 0-.743-8.071l-.566-.117s.47 1.522-3.667 2.126-6.347.311-6.763-.381-.273-.4-.273-.4a2.7 2.7 0 0 0-2.013-2.679z" class="cls-3" data-name="Path 5086" transform="translate(-934.223 -547.597)"/>
                </g>
                <g id="Group_4356" data-name="Group 4356" transform="translate(7.558)">
                    <g id="Group_4355" data-name="Group 4355">
                        <g id="Group_4354" data-name="Group 4354">
                            <path id="Path_5087" d="M941.781 433.811c1.244 15.806 4.725 49.512 7.277 82.735 1.524 19.878 5.437 67.864 6.267 83.957h13.667l-1.5-148.6 3.463.644L995.491 600.5l12-1.083c-1.1-16.021-4.51-62.977-5.709-83.258-1.975-33.464-3.3-67.152-4.454-82.35l-5.041-20.119-1.064-4.243h-48.577v.072l-.153 4.278z" class="cls-4" data-name="Path 5087" transform="translate(-941.781 -409.449)"/>
                        </g>
                    </g>
                    <path id="Path_5090" d="M942.493 413.757a1.488 1.488 0 0 0 .64.124h48.36a1.162 1.162 0 0 0 .794-.23l-1.064-4.2h-48.577z" class="cls-5" data-name="Path 5090" transform="translate(-941.781 -409.449)"/>
                </g>
            </g>
            <g id="Group_4364" data-name="Group 4364" transform="translate(62.145)">
                <g id="Group_4358" data-name="Group 4358" transform="translate(10.199 26.032)">
                    <path id="Path_5091" d="M976.729 345.646H962.64l.542-30.814h13.5z" class="cls-1" data-name="Path 5091" transform="translate(-962.64 -314.832)"/>
                    <path id="Path_5092" d="M962.64 345.646l.542-30.814h13.5l.017 11.93z" class="cls-6" data-name="Path 5092" transform="translate(-962.64 -314.832)"/>
                </g>
                <g id="Group_4363" data-name="Group 4363">
                    <g id="Group_4361" data-name="Group 4361">
                        <path id="Path_5093" d="M984.59 310.007a.853.853 0 0 1-.112.147l-9.857 12.377-8.763-.136-9.03-8.687s-1.027-2.218-2.132-4.465c-.836-1.666-1.713-3.343-2.255-4.159 0 0 2.015-8.6 8.225-13.313a14.454 14.454 0 0 1 9.15-2.969 3.651 3.651 0 0 1 1.8.5 3.41 3.41 0 0 1 .774.607l.342.377s1.794-1.087 2.526-.917c2.551.578 8.544 3.152 11.493 11.1-.051 3.524-.074 6.923-2.161 9.538z" class="cls-7" data-name="Path 5093" transform="translate(-952.441 -288.8)"/>
                        <g id="Group_4360" data-name="Group 4360" transform="translate(.523 3.053)">
                            <path id="Path_5094" d="M955.379 304.762l.985 5.162.628 3.252.249 4.434a15.462 15.462 0 0 0 1.86 4.219c.138.206.286.441.461.676a66.455 66.455 0 0 0 5.335 6.1 2.332 2.332 0 0 0 1.709.7c.813-.015 1.891-.045 2.279-.094a10.653 10.653 0 0 0 2.9-1.646l.029-.027a67.238 67.238 0 0 0 3.443-2.575c2.356-1.942 3.822-7.27 4.453-8.876.335-.85 3.06-1.643 4.315-5.646a15.931 15.931 0 0 0 .659-4.541c.043-2.647-.815-12.72-11.094-13.438a20.874 20.874 0 0 0-1.095-.045c-.237 0-.482 0-.719.007-10.835.312-16.339 8.776-16.397 12.338z" class="cls-1" data-name="Path 5094" transform="translate(-952.964 -291.853)"/>
                            <path id="Path_5095" d="M973.784 291.894a16.892 16.892 0 0 0-1.12-.041h-.452l-.222.005h-.065c-11.1.314-16.739 8.907-16.8 12.524l1.017 5.241c6.843-1.865 13.963-5.884 15.873-10.331a24.951 24.951 0 0 0 3.935 6.878c2.057 2.709 2.4 6.254 1.888 9.539 0 0 .657-.514 1.577-1.251 1.583-1.269 3.943-3.2 5.06-4.312a16.034 16.034 0 0 0 .675-4.607c.05-2.681-.835-12.917-11.366-13.645z" class="cls-7" data-name="Path 5095" transform="translate(-952.964 -291.853)"/>
                            <g id="Group_4359" data-name="Group 4359" transform="translate(0 17)">
                                <path id="Path_5096" d="M979.239 310.784a13.68 13.68 0 0 1-1.87 4.328 1.183 1.183 0 0 1-.884.5 44.127 44.127 0 0 1-8.587-.192c-.244.051-1.139-2.6-1.1-5.035a1.117 1.117 0 0 1 1.019-1.067 42.077 42.077 0 0 1 10.464.132 1.1 1.1 0 0 1 .958 1.334z" class="cls-8" data-name="Path 5096" transform="translate(-952.964 -308.853)"/>
                                <path id="Path_5097" d="M952.989 310.375a14.128 14.128 0 0 0 2.038 4.389 1.18 1.18 0 0 0 .867.526 40.887 40.887 0 0 0 8.281.072c.242.058.551-2.512.592-4.95a1.115 1.115 0 0 0-.984-1.1 36.9 36.9 0 0 0-9.792-.243 1.1 1.1 0 0 0-1.002 1.306z" class="cls-8" data-name="Path 5097" transform="translate(-952.964 -308.853)"/>
                                <path id="Path_5098" d="M978.28 309.45a42.487 42.487 0 0 0-5.142-.391 40.557 40.557 0 0 0-5.322.259 1.113 1.113 0 0 0-1.009 1.022 5.748 5.748 0 0 0-2.054-.008 1.112 1.112 0 0 0-.97-1.018 39.722 39.722 0 0 0-5.288-.457 36.5 36.5 0 0 0-4.5.214 1.1 1.1 0 0 0-1 1.3 14.15 14.15 0 0 0 2.038 4.389 1.184 1.184 0 0 0 .867.527c1.274.143 2.5.221 3.743.24a45.502 45.502 0 0 0 4.538-.169h.008c.2 0 .452-1.824.548-3.85a4.3 4.3 0 0 1 2.113.022c.18 2.026.832 3.882 1.046 3.886h.008q2.382.274 4.7.314 1.965.03 3.883-.122a1.185 1.185 0 0 0 .884-.5 13.7 13.7 0 0 0 1.87-4.328 1.1 1.1 0 0 0-.961-1.33zm-14.617 5.25a43.588 43.588 0 0 1-4.015.132 39.02 39.02 0 0 1-3.666-.236.426.426 0 0 1-.316-.193 13.548 13.548 0 0 1-1.948-4.174.368.368 0 0 1 .069-.31.416.416 0 0 1 .29-.159 35.781 35.781 0 0 1 4.407-.209 39.1 39.1 0 0 1 5.184.448.4.4 0 0 1 .355.4 28.188 28.188 0 0 1-.36 4.301zm13.079.032a.427.427 0 0 1-.322.183c-1.231.1-2.512.139-3.807.119a46.742 46.742 0 0 1-4.3-.272 12.458 12.458 0 0 1-.774-4.369.4.4 0 0 1 .367-.387 39.81 39.81 0 0 1 5.218-.254 41.777 41.777 0 0 1 5.045.384.42.42 0 0 1 .285.168.37.37 0 0 1 .059.312 12.921 12.921 0 0 1-1.771 4.119z" class="cls-9" data-name="Path 5098" transform="translate(-952.964 -308.853)"/>
                            </g>
                            <path id="Path_5099" d="M980.464 316.543a6.737 6.737 0 0 0 3.643-3.276c1.292-2.6.961-4.834-.57-5.124a2.833 2.833 0 0 0-2.574 1.264l-1.258 6.761a.852.852 0 0 0 .759.375z" class="cls-10" data-name="Path 5099" transform="translate(-952.964 -291.853)"/>
                        </g>
                        <path id="Path_5100" d="M971.614 289.3c-.374 9.6-7.44 17.543-16.918 19.94-.836-1.666-1.713-3.343-2.255-4.159 0 0 2.015-8.6 8.225-13.313a14.454 14.454 0 0 1 9.15-2.969 3.651 3.651 0 0 1 1.798.501z" class="cls-11" data-name="Path 5100" transform="translate(-952.441 -288.8)"/>
                    </g>
                    <g id="Group_4362" data-name="Group 4362" transform="translate(4.791 25.09)">
                        <path id="Path_5101" d="M964.107 319.8l-3.338 1.347-.412 2.306a19.434 19.434 0 0 1-3.125-6.016 21.957 21.957 0 0 0 1.038 5.442c.384 1.109 1.279 2.354 1.811 3.487a5.139 5.139 0 0 0 4.577 2.845l3.792.247a5.883 5.883 0 0 0 3.265-.731 42.922 42.922 0 0 0 4.947-3.321 5.061 5.061 0 0 0 1.922-2.951c.438-2.07 1.167-5.676 1.545-8.567l-2.2 1.17-.833 4.316a4.064 4.064 0 0 1-1.147 1.457l-4.4 2.719-.763-2.256-4.5-1.46-1.212.17z" class="cls-7" data-name="Path 5101" transform="translate(-957.232 -313.89)"/>
                        <path id="Path_5102" d="M962.3 322.165a2.894 2.894 0 0 0-.066 1.9 2.345 2.345 0 0 0 1.523.951c.4.07.6-.38.781-.666.068-.106.644-.073.718.035.229.333.563.982 1.085.914a9.411 9.411 0 0 0 2.688-.88.85.85 0 0 0 .509-.817 3.6 3.6 0 0 0-.224-1.245l-3.413-.593-1.011.146-.894-.176z" class="cls-1" data-name="Path 5102" transform="translate(-957.232 -313.89)"/>
                    </g>
                </g>
            </g>
            <g id="Group_4372" data-name="Group 4372" transform="translate(0 40.13)">
                <g id="Group_4366" data-name="Group 4366" transform="translate(84.799 81.673)">
                    <g id="Group_4365" data-name="Group 4365">
                        <path id="Path_5103" d="M977.562 430.932l-2.454-17.426a1.105 1.105 0 0 1 1.014-1.325l36.989-1.577a1.4 1.4 0 0 1 1.373 1.223l2.957 21c-19.712 1.43-33.012-.427-39.879-1.895z" class="cls-12" data-name="Path 5103" transform="translate(-975.094 -410.603)"/>
                        <path id="Path_5104" d="M978.7 438.993l-1.136-8.061c6.867 1.466 20.167 3.325 39.879 1.891l.633 4.491a1.105 1.105 0 0 1-1.014 1.325l-36.99 1.578a1.4 1.4 0 0 1-1.372-1.224z" class="cls-13" data-name="Path 5104" transform="translate(-975.094 -410.603)"/>
                        <path id="Path_5105" d="M981.263 431.636l-2.426-17.221 32.217-1.373 2.818 20.009a148.456 148.456 0 0 1-32.609-1.415z" class="cls-14" data-name="Path 5105" transform="translate(-975.094 -410.603)"/>
                        <path id="Path_5106" d="M982.128 437.779l-.865-6.143a148.456 148.456 0 0 0 32.609 1.415l.472 3.354z" class="cls-15" data-name="Path 5106" transform="translate(-975.094 -410.603)"/>
                    </g>
                    <path id="Path_5107" d="M1014.627 425.958c.336-.014.517-.678.4-1.482s-.478-1.444-.814-1.43-.517.678-.4 1.482.478 1.444.814 1.43z" class="cls-14" data-name="Path 5107" transform="translate(-975.094 -410.603)"/>
                </g>
                <g id="Group_4371" data-name="Group 4371">
                    <g id="Group_4368" data-name="Group 4368" transform="translate(0 14.534)">
                        <path id="Path_5108" d="M890.591 412.469a1.215 1.215 0 0 1 .193-.3 2.666 2.666 0 0 1-.08-.98 1.916 1.916 0 0 1 .145-.507 2.587 2.587 0 0 1 .131-.242c.062-.057.109-.137.171-.194.458-.505.939-.975 1.42-1.445a191.78 191.78 0 0 1 2.946-2.768l.373-.343c.063-.057.123-.1.2-.169.037-.032.1-.108.156-.167.222-.244.438-.509.653-.764q.642-.765 1.262-1.565c.411-.524.8-1.061 1.191-1.609.145-.215.595-.717.729-.934-1.217.616-2.852 1.87-4.054 2.027a4.364 4.364 0 0 1-1.381-.653c-.187-.158 6.264-6.769 6.264-6.769a72.373 72.373 0 0 1 7.779-2.307c.162-.1 28.621-13.073 28.621-13.073l3.822 11.5s-27.379 7.39-27.824 8.3c-.509 1.187-5.4 5.95-8.515 9-.382.678-8.19 5.437-9.2 6.268a2.308 2.308 0 0 1-1.364.542 1.021 1.021 0 0 1-.653-.309l-.156.167-.014.017a3.771 3.771 0 0 1-.554.287 2.1 2.1 0 0 1-.939.24.977.977 0 0 1-.887-.495.9.9 0 0 1 .02-.731.886.886 0 0 1-.636-.395c-.197-.335-.137-.869.181-1.629z" class="cls-1" data-name="Path 5108" transform="translate(-890.296 -343.464)"/>
                        <g id="Group_4367" data-name="Group 4367" transform="translate(36.294)">
                            <path id="Path_5109" d="M928.728 382.033l10.475-4.89 3.484-27.851c.018-.194.866-4.1 4.012-5.828 4.268.752 11.363 3.332 10.63 7.7l-5.623 33.517-.135.807c-.514 3.063-6.535 5.038-6.535 5.038l-12.9 3.887z" class="cls-16" data-name="Path 5109" transform="translate(-926.589 -343.464)"/>
                            <path id="Path_5110" d="M932.145 395.327l-5.555-13.966 7.7-2.958 6.01 15.109z" class="cls-17" data-name="Path 5110" transform="translate(-926.589 -343.464)"/>
                        </g>
                    </g>
                    <g id="Group_4369" data-name="Group 4369" transform="translate(52.351)">
                        <path id="Path_5111" d="M991.223 409.449h-48.577l4.052-65.985 15.479-7.077.574-5.725 3.487 1.867 1.081 10.394 2.435-10.881 8.768-3.113v7.037l19.345 6.243z" class="cls-18" data-name="Path 5111" transform="translate(-942.646 -328.93)"/>
                        <path id="Path_5112" d="M969.763 331.964l-.712 7.586 9.473-3.583v-7.037z" class="cls-17" data-name="Path 5112" transform="translate(-942.646 -328.93)"/>
                        <path id="Path_5113" d="M961.354 329.914l-.263 6.858 4.31 3.213.837-7.456z" class="cls-17" data-name="Path 5113" transform="translate(-942.646 -328.93)"/>
                        <path id="Path_5114" d="M967.376 342.806c0 4.856-.144 9.707-.391 14.554-.138 2.423-.337 4.843-.446 7.267-.132 2.423-.191 4.849-.244 7.276-.112 4.852-.232 9.7-.464 14.551q-.316 7.272-.882 14.535l-.261 8.46c.019-4.856.34-18.17.533-23.019.173-4.85.457-9.7.75-14.54.149-2.423.292-4.845.363-7.271.093-2.425.1-4.853.161-7.279.158-4.85.42-9.7.822-14.537z" class="cls-6" data-name="Path 5114" transform="translate(-942.646 -328.93)"/>
                    </g>
                    <g id="Group_4370" data-name="Group 4370" transform="translate(96.973 13.266)">
                        <path id="Path_5115" d="M987.671 433.993c.3-.309 4.117-6.747 4.376-7.036l1.786-1.309c.192-5.775.723-18.237 1.108-27.1l11.671.247c-1.369 9.6-3.313 23.247-4.008 28.381.552 2.291 2.774 11.727 2.345 13.525-1.561 1.345-8.289 2.215-8.289 2.215l-.05 1.432-1.67.581-2.977-1.711a2.671 2.671 0 0 1-1.435-2.117l-.119-1.276 2.23-.1s.091-3.965.036-5.54c-.011-.318-.541-.884-.542-.907-.768.466-2.7 2.785-3.744 2.534a2.554 2.554 0 0 1-.694-.29 1.067 1.067 0 0 1-.4-.48 1.158 1.158 0 0 1 .376-1.049z" class="cls-19" data-name="Path 5115" transform="translate(-987.269 -342.196)"/>
                        <path id="Path_5116" d="M994 410.159h12.011c.68-5.756 1.4-11.644 1.91-15.806a73.346 73.346 0 0 0 .5-11.58c-.351-9.829-2.593-31.242-2.776-31.9-.218-.779-5.134-8.19-7.906-8.681-4.353.348-7.709 4.013-7.333 8.032.6 6.4 3.733 38.439 3.733 38.439s.503 11.009-.139 21.496z" class="cls-20" data-name="Path 5116" transform="translate(-987.269 -342.196)"/>
                        <path id="Path_5117" d="M1007.094 410.159h-13.717v-7.778h14.839z" class="cls-17" data-name="Path 5117" transform="translate(-987.269 -342.196)"/>
                    </g>
                </g>
            </g>
        </g>
        <g id="Group_4386" data-name="Group 4386" transform="translate(448.079)">
            <g id="Group_4377" data-name="Group 4377">
                <g id="Group_4376" data-name="Group 4376" transform="translate(0 3.142)">
                    <path id="Path_5118" d="M1087.492 626.278h2.292l-.167-157.22h-5.024z" class="cls-12" data-name="Path 5118" transform="translate(-977.894 -288.151)"/>
                    <g id="Group_4375" data-name="Group 4375">
                        <g id="Group_4374" data-name="Group 4374" transform="translate(0 178.811)">
                            <path id="Path_5119" d="M980.01 638.848h-2.116l32.006-171.886h5.024z" class="cls-12" data-name="Path 5119" transform="translate(-977.894 -466.962)"/>
                            <path id="Path_5120" d="M1133.23 640.848h2.116l-3.856-173.885h-5.024z" class="cls-12" data-name="Path 5120" transform="translate(-977.894 -466.962)"/>
                        </g>
                        <path id="Path_5121" d="M1150.219 484.769H988.057l17.2-196.618h162.162z" class="cls-21" data-name="Path 5121" transform="translate(-977.894 -288.151)"/>
                    </g>
                </g>
                <path id="Path_5122" d="M1167.421 291.293h-162.162a3.142 3.142 0 1 1 0-6.284h162.162a3.142 3.142 0 1 1 0 6.284z" class="cls-22" data-name="Path 5122" transform="translate(-977.894 -285.009)"/>
            </g>
            <g id="Group_4385" data-name="Group 4385" transform="translate(26.527 17.193)">
                <path id="Path_5123" d="M1061.486 310.153l-38.159-.058.7-7.894 38.159.058z" class="cls-23" data-name="Path 5123" transform="translate(-1004.421 -302.201)"/>
                <g id="Group_4378" data-name="Group 4378" transform="translate(11.782 14.975)">
                    <path id="Path_5124" d="M1077.67 318.891l-50.879-.077.145-1.637 50.879.077z" class="cls-23" data-name="Path 5124" transform="translate(-1016.203 -317.176)"/>
                    <path id="Path_5125" d="M1076.967 326.785l-59.359-.09.146-1.637 59.359.09z" class="cls-23" data-name="Path 5125" transform="translate(-1016.203 -317.176)"/>
                    <path id="Path_5126" d="M1076.264 334.678l-59.358-.09.146-1.637 59.358.09z" class="cls-23" data-name="Path 5126" transform="translate(-1016.203 -317.176)"/>
                    <path id="Path_5127" d="M1075.562 342.572l-59.358-.089.145-1.637 59.358.089z" class="cls-23" data-name="Path 5127" transform="translate(-1016.203 -317.176)"/>
                </g>
                <g id="Group_4379" data-name="Group 4379" transform="translate(17.956 47.394)">
                    <path id="Path_5128" d="M1026.617 377.211l-4.24-.006 1.757-19.734 4.24.006z" class="cls-24" data-name="Path 5128" transform="translate(-1022.377 -349.596)"/>
                    <path id="Path_5129" d="M1030.857 377.218l-4.24-.006 2.108-23.681 4.24.006z" class="cls-25" data-name="Path 5129" transform="translate(-1022.377 -349.596)"/>
                    <path id="Path_5130" d="M1035.1 377.224l-4.24-.006 1.757-19.734 4.24.006z" class="cls-26" data-name="Path 5130" transform="translate(-1022.377 -349.596)"/>
                    <path id="Path_5131" d="M1039.337 377.23l-4.24-.006 2.46-27.628 4.24.006z" class="cls-24" data-name="Path 5131" transform="translate(-1022.377 -349.596)"/>
                    <path id="Path_5132" d="M1043.577 377.237l-4.24-.006 1.406-15.787 4.24.006z" class="cls-27" data-name="Path 5132" transform="translate(-1022.377 -349.596)"/>
                    <path id="Path_5133" d="M1047.816 377.243l-4.24-.006 2.46-27.628 4.24.006z" class="cls-28" data-name="Path 5133" transform="translate(-1022.377 -349.596)"/>
                </g>
                <path id="Path_5134" d="M1020.109 345.676h.819l-2.678 31.165 37.3-.056-.07.819-38.169.058.069-.819h.048z" class="cls-23" data-name="Path 5134" transform="translate(-1004.421 -302.202)"/>
                <g id="Group_4380" data-name="Group 4380" transform="translate(87.6 4.792)">
                    <path id="Path_5135" d="M1103.512 314.4l.659-7.412a12.092 12.092 0 0 0-8.15 3.243l4.774 5.25a4.025 4.025 0 0 1 2.717-1.081z" class="cls-29" data-name="Path 5135" transform="translate(-1092.022 -306.993)"/>
                    <path id="Path_5136" d="M1106.888 318.117l7.411.012a10.221 10.221 0 0 0-2.557-7.867l-5.707 5.232a3.408 3.408 0 0 1 .853 2.623z" class="cls-25" data-name="Path 5136" transform="translate(-1092.022 -306.993)"/>
                    <path id="Path_5137" d="M1106.035 315.494l5.707-5.232a10.135 10.135 0 0 0-7.571-3.269l-.659 7.412a3.377 3.377 0 0 1 2.523 1.089z" class="cls-29" data-name="Path 5137" transform="translate(-1092.021 -306.993)"/>
                    <path id="Path_5138" d="M1100.795 315.486l-4.774-5.25a12.185 12.185 0 0 0-3.955 7.857l7.411.012a4.059 4.059 0 0 1 1.318-2.619z" class="cls-23" data-name="Path 5138" transform="translate(-1092.021 -306.993)"/>
                    <path id="Path_5139" d="M1102.853 321.817l-.66 7.412a12.088 12.088 0 0 0 8.15-3.244l-4.774-5.25a4.03 4.03 0 0 1-2.716 1.082z" class="cls-28" data-name="Path 5139" transform="translate(-1092.022 -306.993)"/>
                    <path id="Path_5140" d="M1099.477 318.1l-7.411-.012a10.222 10.222 0 0 0 2.556 7.866l5.707-5.232a3.407 3.407 0 0 1-.852-2.622z" class="cls-23" data-name="Path 5140" transform="translate(-1092.022 -306.993)"/>
                    <path id="Path_5141" d="M1106.888 318.117a4.061 4.061 0 0 1-1.319 2.618l4.774 5.25a12.188 12.188 0 0 0 3.956-7.856z" class="cls-25" data-name="Path 5141" transform="translate(-1092.021 -306.993)"/>
                    <path id="Path_5142" d="M1100.329 320.727l-5.707 5.232a10.134 10.134 0 0 0 7.571 3.27l.66-7.412a3.378 3.378 0 0 1-2.524-1.09z" class="cls-28" data-name="Path 5142" transform="translate(-1092.022 -306.993)"/>
                </g>
                <g id="Group_4381" data-name="Group 4381" transform="translate(82.103 3.276)">
                    <path id="Path_5143" d="M1150.8 307.159l-29.679-.045.145-1.637 29.679.045z" class="cls-23" data-name="Path 5143" transform="translate(-1086.525 -305.477)"/>
                    <path id="Path_5144" d="M1150.1 315.052l-25.44-.038.145-1.637 25.44.038z" class="cls-23" data-name="Path 5144" transform="translate(-1086.524 -305.477)"/>
                    <path id="Path_5145" d="M1149.4 322.947l-29.679-.046.146-1.637 29.679.046z" class="cls-23" data-name="Path 5145" transform="translate(-1086.525 -305.477)"/>
                    <path id="Path_5146" d="M1149.046 326.894l-29.679-.044.146-1.637 29.679.044z" class="cls-23" data-name="Path 5146" transform="translate(-1086.525 -305.477)"/>
                    <path id="Path_5147" d="M1148.694 330.84l-29.679-.044.145-1.637 29.679.044z" class="cls-23" data-name="Path 5147" transform="translate(-1086.525 -305.477)"/>
                    <path id="Path_5148" d="M1148.343 334.787l-29.68-.044.145-1.637 29.68.044z" class="cls-23" data-name="Path 5148" transform="translate(-1086.524 -305.477)"/>
                    <path id="Path_5149" d="M1147.992 338.734l-29.679-.045.145-1.637 29.679.045z" class="cls-23" data-name="Path 5149" transform="translate(-1086.525 -305.477)"/>
                    <path id="Path_5150" d="M1147.64 342.681l-29.679-.046.146-1.637 29.679.046z" class="cls-23" data-name="Path 5150" transform="translate(-1086.525 -305.477)"/>
                    <path id="Path_5151" d="M1149.748 319l-29.679-.046.145-1.637 29.679.046z" class="cls-23" data-name="Path 5151" transform="translate(-1086.524 -305.477)"/>
                    <path id="Path_5152" d="M1146.937 350.575l-55.119-.084.146-1.637 55.119.084z" class="cls-23" data-name="Path 5152" transform="translate(-1086.525 -305.477)"/>
                    <path id="Path_5153" d="M1146.585 354.521l-59.358-.089.145-1.637 59.358.089z" class="cls-23" data-name="Path 5153" transform="translate(-1086.525 -305.477)"/>
                    <path id="Path_5154" d="M1146.234 358.468l-59.359-.089.145-1.637 59.359.089z" class="cls-23" data-name="Path 5154" transform="translate(-1086.524 -305.477)"/>
                    <path id="Path_5155" d="M1145.883 362.416l-59.358-.09.145-1.637 59.358.09z" class="cls-23" data-name="Path 5155" transform="translate(-1086.524 -305.477)"/>
                    <path id="Path_5156" d="M1145.532 366.362l-42.4-.064.145-1.637 42.4.064z" class="cls-23" data-name="Path 5156" transform="translate(-1086.525 -305.477)"/>
                    <path id="Path_5157" d="M1136.7 370.3l-21.2-.031.145-1.637 21.2.031z" class="cls-23" data-name="Path 5157" transform="translate(-1086.524 -305.477)"/>
                </g>
                <g id="Group_4382" data-name="Group 4382" transform="translate(23.314 1.908)">
                    <path id="Line_26" d="M0 0l29.679.045" class="cls-23" data-name="Line 26" transform="translate(.183 2.045)"/>
                    <path id="Path_5158" d="M1057.415 308.245l-29.68-.044.364-4.091 29.68.045z" class="cls-30" data-name="Path 5158" transform="translate(-1027.735 -304.109)"/>
                </g>
                <path id="Path_5159" d="M1142.884 398.9l-131.687-.2.91-10.215 131.687.2z" class="cls-23" data-name="Path 5159" transform="translate(-1004.421 -302.202)"/>
                <path id="Path_5160" d="M1025.82 474.837l-21.4-.032 1.774-19.92 21.4.032zm-19.022-2.072l17.01.026 1.409-15.834-17.009-.026z" class="cls-23" data-name="Path 5160" transform="translate(-1004.421 -302.202)"/>
                <g id="Group_4384" data-name="Group 4384" transform="translate(2.001 101.619)">
                    <path id="Path_5161" d="M1048.7 408.973l-30.178-.046.455-5.108 30.178.046z" class="cls-23" data-name="Path 5161" transform="translate(-1006.422 -403.82)"/>
                    <g id="Group_4383" data-name="Group 4383" transform="translate(0 10.215)">
                        <path id="Path_5162" d="M1141.292 416.776l-123.456-.186.228-2.554 123.456.186z" class="cls-23" data-name="Path 5162" transform="translate(-1006.422 -414.035)"/>
                        <path id="Path_5163" d="M1140.837 421.884l-131.687-.2.227-2.554 131.687.2z" class="cls-23" data-name="Path 5163" transform="translate(-1006.422 -414.035)"/>
                        <path id="Path_5164" d="M1140.383 426.991l-131.687-.2.227-2.554 131.687.2z" class="cls-23" data-name="Path 5164" transform="translate(-1006.422 -414.035)"/>
                        <path id="Path_5165" d="M1131.7 432.086l-123.456-.186.228-2.554 123.456.187z" class="cls-23" data-name="Path 5165" transform="translate(-1006.422 -414.035)"/>
                        <path id="Path_5166" d="M1139.473 437.207l-123.456-.186.228-2.554 123.456.186z" class="cls-23" data-name="Path 5166" transform="translate(-1006.422 -414.035)"/>
                        <path id="Path_5167" d="M1139.018 442.314l-131.687-.2.227-2.554 131.687.2z" class="cls-23" data-name="Path 5167" transform="translate(-1006.422 -414.035)"/>
                        <path id="Path_5168" d="M1138.563 447.422l-131.687-.2.227-2.554 131.687.2z" class="cls-23" data-name="Path 5168" transform="translate(-1006.422 -414.035)"/>
                        <path id="Path_5169" d="M1138.109 452.53l-131.687-.2.228-2.554 131.687.2z" class="cls-23" data-name="Path 5169" transform="translate(-1006.422 -414.036)"/>
                        <path id="Path_5170" d="M1137.654 457.638l-104.254-.158.227-2.554 104.252.158z" class="cls-23" data-name="Path 5170" transform="translate(-1006.422 -414.036)"/>
                        <path id="Path_5171" d="M1137.2 462.745l-104.252-.158.227-2.554 104.252.158z" class="cls-23" data-name="Path 5171" transform="translate(-1006.422 -414.036)"/>
                        <path id="Path_5172" d="M1136.745 467.853l-104.252-.158.227-2.554 104.252.158z" class="cls-23" data-name="Path 5172" transform="translate(-1006.422 -414.036)"/>
                        <path id="Path_5173" d="M1125.316 472.944l-38.409-.058.227-2.554 38.409.058z" class="cls-23" data-name="Path 5173" transform="translate(-1006.422 -414.035)"/>
                    </g>
                </g>
                <path id="Path_5174" d="M1129.394 396.324l-112.482-.17.455-5.108 112.483.17z" class="cls-23" data-name="Path 5174" transform="translate(-1004.421 -302.201)"/>
                <path id="Path_5175" d="M1013.265 467.191l10.5-8.03-10.7 10.287-3.948-3.249a1.15 1.15 0 0 1 .065-1.787l.024-.02a1.348 1.348 0 0 1 1.911.09z" class="cls-23" data-name="Path 5175" transform="translate(-1004.421 -302.202)"/>
            </g>
        </g>
        <g id="Group_4387" data-name="Group 4387" transform="translate(159.154 204.568)">
            <path id="Path_5176" d="M692.439 489.577h323.3a3.473 3.473 0 0 1 3.29 2.505h-329.88a3.473 3.473 0 0 1 3.29-2.505z" class="cls-31" data-name="Path 5176" transform="translate(-688.969 -489.577)"/>
            <path id="Path_5177" d="M1019.025 492.082a3.653 3.653 0 0 1 .18 1.088 3.532 3.532 0 0 1-3.47 3.592h-323.3a3.532 3.532 0 0 1-3.47-3.592 3.653 3.653 0 0 1 .18-1.088z" class="cls-32" data-name="Path 5177" transform="translate(-688.969 -489.577)"/>
        </g>
        <g id="Group_4401" data-name="Group 4401" transform="translate(322.013 161.031)">
            <g id="Group_4389" data-name="Group 4389">
                <g id="Group_4388" data-name="Group 4388" transform="translate(0 1.119)">
                    <path id="Path_5178" d="M857.056 489.651h77.465c1.507 0 4.664-.885 5.227-2.236h-87.92c.563 1.351 3.721 2.236 5.228 2.236z" class="cls-33" data-name="Path 5178" transform="translate(-851.828 -447.159)"/>
                    <path id="Path_5179" d="M895.2 447.746a.587.587 0 1 0 .587-.587.587.587 0 0 0-.587.587z" class="cls-34" data-name="Path 5179" transform="translate(-851.828 -447.159)"/>
                    <path id="Path_5180" d="M895.392 448.142a.561.561 0 0 0 .793-.793.561.561 0 0 0-.793.793z" class="cls-34" data-name="Path 5180" transform="translate(-851.828 -447.159)"/>
                </g>
                <path id="Path_5181" d="M861.6 446.04h68.37a1.6 1.6 0 0 1 1.6 1.6v39.776h-71.565v-39.777a1.6 1.6 0 0 1 1.595-1.599z" class="cls-12" data-name="Path 5181" transform="translate(-851.828 -446.04)"/>
                <path id="Rectangle_2354" d="M0 0h65.727v35.895H0z" class="cls-30" data-name="Rectangle 2354" transform="translate(11.097 2.92)"/>
            </g>
            <g id="Group_4400" data-name="Group 4400" transform="translate(12.022 4.113)">
                <path id="Path_5182" d="M914.685 461.518h11.037v14.065h-17.64v-14.065z" class="cls-35" data-name="Path 5182" transform="translate(-863.85 -450.153)"/>
                <g id="Group_4390" data-name="Group 4390" transform="translate(47.791 15.171)">
                    <path id="Rectangle_2355" d="M0 0h10.521v6.453H0z" class="cls-30" data-name="Rectangle 2355"/>
                    <path id="Path_5183" d="M915.187 468.551l3.431 1.631v-3.261z" class="cls-36" data-name="Path 5183" transform="translate(-911.642 -465.325)"/>
                </g>
                <path id="Rectangle_2356" d="M0 0h12.428v6.358H0z" class="cls-35" data-name="Rectangle 2356" transform="translate(28.731 12.04)"/>
                <path id="Rectangle_2357" d="M0 0h12.428v6.358H0z" class="cls-35" data-name="Rectangle 2357" transform="translate(15.635 12.04)"/>
                <path id="Rectangle_2358" d="M0 0h12.428v6.358H0z" class="cls-35" data-name="Rectangle 2358" transform="translate(2.539 12.04)"/>
                <path id="Rectangle_2359" d="M0 0h17.629v5.729H0z" class="cls-35" data-name="Rectangle 2359" transform="translate(44.329 26.88)"/>
                <g id="Group_4397" data-name="Group 4397" transform="translate(3.865 19.164)">
                    <g id="Group_4391" data-name="Group 4391" transform="translate(26.375)">
                        <path id="Rectangle_2360" d="M0 0h8.824v.647H0z" class="cls-35" data-name="Rectangle 2360" transform="translate(2.094)"/>
                        <path id="Rectangle_2361" d="M0 0h10.918v.47H0z" class="cls-35" data-name="Rectangle 2361" transform="translate(0 1.293)"/>
                        <path id="Rectangle_2362" d="M0 0h9.221v.294H0z" class="cls-35" data-name="Rectangle 2362" transform="translate(1.698 2.997)"/>
                        <path id="Rectangle_2363" d="M0 0h9.221v.294H0z" class="cls-35" data-name="Rectangle 2363" transform="translate(1.698 2.292)"/>
                        <path id="Rectangle_2364" d="M0 0h9.221v.294H0z" class="cls-35" data-name="Rectangle 2364" transform="translate(1.698 4.408)"/>
                        <path id="Rectangle_2365" d="M0 0h9.221v.294H0z" class="cls-35" data-name="Rectangle 2365" transform="translate(1.698 3.702)"/>
                    </g>
                    <g id="Group_4392" data-name="Group 4392" transform="translate(26.375 6.024)">
                        <path id="Rectangle_2366" d="M0 0h8.824v.646H0z" class="cls-35" data-name="Rectangle 2366" transform="translate(2.094)"/>
                        <path id="Rectangle_2367" d="M0 0h10.918v.47H0z" class="cls-35" data-name="Rectangle 2367" transform="translate(0 1.293)"/>
                        <path id="Rectangle_2368" d="M0 0h9.221v.294H0z" class="cls-35" data-name="Rectangle 2368" transform="translate(1.698 2.997)"/>
                        <path id="Rectangle_2369" d="M0 0h9.221v.294H0z" class="cls-35" data-name="Rectangle 2369" transform="translate(1.698 2.292)"/>
                        <path id="Rectangle_2370" d="M0 0h9.221v.294H0z" class="cls-35" data-name="Rectangle 2370" transform="translate(1.698 4.408)"/>
                        <path id="Rectangle_2371" d="M0 0h9.221v.294H0z" class="cls-35" data-name="Rectangle 2371" transform="translate(1.698 3.702)"/>
                    </g>
                    <g id="Group_4393" data-name="Group 4393" transform="translate(13.279)">
                        <path id="Rectangle_2372" d="M0 0h8.824v.647H0z" class="cls-35" data-name="Rectangle 2372" transform="translate(2.094)"/>
                        <path id="Rectangle_2373" d="M0 0h10.918v.47H0z" class="cls-35" data-name="Rectangle 2373" transform="translate(0 1.293)"/>
                        <path id="Rectangle_2374" d="M0 0h9.221v.294H0z" class="cls-35" data-name="Rectangle 2374" transform="translate(1.698 2.997)"/>
                        <path id="Rectangle_2375" d="M0 0h9.221v.294H0z" class="cls-35" data-name="Rectangle 2375" transform="translate(1.698 2.292)"/>
                        <path id="Rectangle_2376" d="M0 0h9.221v.294H0z" class="cls-35" data-name="Rectangle 2376" transform="translate(1.698 4.408)"/>
                        <path id="Rectangle_2377" d="M0 0h9.221v.294H0z" class="cls-35" data-name="Rectangle 2377" transform="translate(1.698 3.702)"/>
                    </g>
                    <g id="Group_4394" data-name="Group 4394" transform="translate(13.279 6.024)">
                        <path id="Rectangle_2378" d="M0 0h8.824v.646H0z" class="cls-35" data-name="Rectangle 2378" transform="translate(2.094)"/>
                        <path id="Rectangle_2379" d="M0 0h10.918v.47H0z" class="cls-35" data-name="Rectangle 2379" transform="translate(0 1.293)"/>
                        <path id="Rectangle_2380" d="M0 0h9.221v.294H0z" class="cls-35" data-name="Rectangle 2380" transform="translate(1.698 2.997)"/>
                        <path id="Rectangle_2381" d="M0 0h9.221v.294H0z" class="cls-35" data-name="Rectangle 2381" transform="translate(1.698 2.292)"/>
                        <path id="Rectangle_2382" d="M0 0h9.221v.294H0z" class="cls-35" data-name="Rectangle 2382" transform="translate(1.698 4.408)"/>
                        <path id="Rectangle_2383" d="M0 0h9.221v.294H0z" class="cls-35" data-name="Rectangle 2383" transform="translate(1.698 3.702)"/>
                    </g>
                    <g id="Group_4395" data-name="Group 4395">
                        <path id="Rectangle_2384" d="M0 0h8.824v.647H0z" class="cls-35" data-name="Rectangle 2384" transform="translate(2.094)"/>
                        <path id="Rectangle_2385" d="M0 0h10.918v.47H0z" class="cls-35" data-name="Rectangle 2385" transform="translate(0 1.293)"/>
                        <path id="Rectangle_2386" d="M0 0h9.221v.294H0z" class="cls-35" data-name="Rectangle 2386" transform="translate(1.698 2.997)"/>
                        <path id="Rectangle_2387" d="M0 0h9.221v.294H0z" class="cls-35" data-name="Rectangle 2387" transform="translate(1.698 2.292)"/>
                        <path id="Rectangle_2388" d="M0 0h9.221v.294H0z" class="cls-35" data-name="Rectangle 2388" transform="translate(1.698 4.408)"/>
                        <path id="Rectangle_2389" d="M0 0h9.221v.294H0z" class="cls-35" data-name="Rectangle 2389" transform="translate(1.698 3.702)"/>
                    </g>
                    <g id="Group_4396" data-name="Group 4396" transform="translate(0 6.024)">
                        <path id="Rectangle_2390" d="M0 0h8.824v.646H0z" class="cls-35" data-name="Rectangle 2390" transform="translate(2.094)"/>
                        <path id="Rectangle_2391" d="M0 0h10.918v.47H0z" class="cls-35" data-name="Rectangle 2391" transform="translate(0 1.293)"/>
                        <path id="Rectangle_2392" d="M0 0h9.221v.294H0z" class="cls-35" data-name="Rectangle 2392" transform="translate(1.698 2.997)"/>
                        <path id="Rectangle_2393" d="M0 0h9.221v.294H0z" class="cls-35" data-name="Rectangle 2393" transform="translate(1.698 2.292)"/>
                        <path id="Rectangle_2394" d="M0 0h9.221v.294H0z" class="cls-35" data-name="Rectangle 2394" transform="translate(1.698 4.408)"/>
                        <path id="Rectangle_2395" d="M0 0h9.221v.294H0z" class="cls-35" data-name="Rectangle 2395" transform="translate(1.698 3.702)"/>
                    </g>
                </g>
                <g id="Group_4399" data-name="Group 4399">
                    <path id="Rectangle_2396" d="M0 0h63.876v10.465H0z" class="cls-35" data-name="Rectangle 2396"/>
                    <g id="Group_4398" data-name="Group 4398" transform="translate(2.149 3.289)">
                        <path id="Rectangle_2397" d="M0 0h7.93v4.106H0z" class="cls-37" data-name="Rectangle 2397" transform="translate(49.982)"/>
                        <path id="Rectangle_2398" d="M0 0h6.22v1.583H0z" class="cls-38" data-name="Rectangle 2398" transform="translate(35.961 .36)"/>
                        <path id="Rectangle_2399" d="M0 0h34.914v1.583H0z" class="cls-38" data-name="Rectangle 2399" transform="translate(0 .36)"/>
                        <path id="Rectangle_2400" d="M0 0h42.18v.353H0z" class="cls-38" data-name="Rectangle 2400" transform="translate(0 2.77)"/>
                        <path id="Rectangle_2401" d="M0 0h42.18v.353H0z" class="cls-38" data-name="Rectangle 2401" transform="translate(0 4.114)"/>
                    </g>
                </g>
            </g>
        </g>
        <g id="Group_4442" data-name="Group 4442" transform="translate(0 107.916)">
            <g id="Group_4418" data-name="Group 4418" transform="translate(174.278 46.568)">
                <g id="Group_4404" data-name="Group 4404">
                    <path id="Path_5184" d="M734.387 486.916l24.482.129 21.5-47.552L755 444.866z" class="cls-30" data-name="Path 5184" transform="translate(-704.093 -439.493)"/>
                    <g id="Group_4403" data-name="Group 4403">
                        <path id="Rectangle_2402" d="M0 0h54.781v.879A1.782 1.782 0 0 1 53 2.661H1.782A1.782 1.782 0 0 1 0 .879V0z" class="cls-39" data-name="Rectangle 2402" transform="translate(0 47.423)"/>
                        <g id="Group_4402" data-name="Group 4402" transform="translate(54.781)">
                            <path id="Path_5185" d="M761.56 486.609l20.352-44.9a1.374 1.374 0 0 0-.682-1.82l-21.49 47.4a1.374 1.374 0 0 0 1.82-.68z" class="cls-39" data-name="Path 5185" transform="translate(-758.874 -439.493)"/>
                            <path id="Path_5186" d="M758.874 486.9l21.49-47.4.866.394-21.49 47.4z" class="cls-40" data-name="Path 5186" transform="translate(-758.874 -439.493)"/>
                        </g>
                    </g>
                </g>
                <g id="Group_4417" data-name="Group 4417" transform="translate(32.731)">
                    <g id="Group_4416" data-name="Group 4416">
                        <g id="Group_4406" data-name="Group 4406" transform="translate(12.442 .915)">
                            <path id="Path_5187" d="M753.335 448.288l20.821-3.982 1.78-3.9-20.917 4.429z" class="cls-22" data-name="Path 5187" transform="translate(-749.265 -440.409)"/>
                            <path id="Path_5188" d="M752.335 450.348l20.792-3.788 1.029-2.254-20.816 3.981z" class="cls-41" data-name="Path 5188" transform="translate(-749.265 -440.409)"/>
                            <g id="Group_4405" data-name="Group 4405" transform="translate(0 8.115)">
                                <path id="Path_5189" d="M749.265 456.643l20.713-3.189 2.251-4.93-20.77 3.619z" class="cls-22" data-name="Path 5189" transform="translate(-749.265 -448.524)"/>
                                <path id="Path_5190" d="M754.506 454.487l15.321-2.458.894-1.952-15.336 2.584z" class="cls-42" data-name="Path 5190" transform="translate(-749.265 -448.524)"/>
                                <path id="Path_5191" d="M751.86 454.911l1.332-.214.876-1.815-1.334.225z" class="cls-42" data-name="Path 5191" transform="translate(-749.265 -448.524)"/>
                            </g>
                        </g>
                        <g id="Group_4412" data-name="Group 4412" transform="translate(0 17.014)">
                            <path id="Path_5192" d="M749.224 467.322l5.043-.512 4.187-8.873-5.074.716z" class="cls-43" data-name="Path 5192" transform="translate(-736.824 -456.508)"/>
                            <g id="Group_4407" data-name="Group 4407" transform="translate(7.904 2.228)">
                                <path id="Path_5193" d="M750.553 458.745h.017c.627-.089.607 1.012.047 2.718l-2.853 3.063z" class="cls-44" data-name="Path 5193" transform="translate(-744.727 -458.736)"/>
                                <path id="Path_5194" d="M750.617 461.459a22 22 0 0 1-1.077 2.619 27.175 27.175 0 0 1-1.7 3.032l-.075-2.588z" class="cls-44" data-name="Path 5194" transform="translate(-744.727 -458.736)"/>
                                <path id="Path_5195" d="M747.688 461.9c1.114-1.78 2.23-3.048 2.865-3.158l-2.789 5.777z" class="cls-44" data-name="Path 5195" transform="translate(-744.727 -458.736)"/>
                                <path id="Path_5196" d="M747.688 461.9l.076 2.619-2.686 2.884a21.326 21.326 0 0 1 1.2-2.945 27.771 27.771 0 0 1 1.41-2.558z" class="cls-45" data-name="Path 5196" transform="translate(-744.727 -458.736)"/>
                                <path id="Path_5197" d="M747.7 467.757c-1.062 1.628-2.09 2.74-2.671 2.792l2.6-5.388z" class="cls-43" data-name="Path 5197" transform="translate(-744.727 -458.736)"/>
                                <path id="Path_5198" d="M745.167 469.9c-.574.049-.567-.954-.089-2.494l2.686-2.884z" class="cls-43" data-name="Path 5198" transform="translate(-744.727 -458.736)"/>
                            </g>
                            <g id="Group_4408" data-name="Group 4408" transform="translate(15.855)">
                                <path id="Path_5199" d="M761.374 457.906l3.713-.518.406-.881-3.714.532z" class="cls-43" data-name="Path 5199" transform="translate(-752.679 -456.508)"/>
                                <path id="Path_5200" d="M761.444 460.655l4.742-.6.434-.948-4.744.62z" class="cls-43" data-name="Path 5200" transform="translate(-752.679 -456.508)"/>
                                <path id="Path_5201" d="M759.322 462.738l5.3-.626.261-.568-5.3.64z" class="cls-43" data-name="Path 5201" transform="translate(-752.679 -456.508)"/>
                                <path id="Path_5202" d="M758.864 463.719l5.954-.677.262-.572-5.956.693z" class="cls-43" data-name="Path 5202" transform="translate(-752.679 -456.508)"/>
                                <path id="Path_5203" d="M758.4 464.7l5.951-.651.263-.573-5.953.666z" class="cls-43" data-name="Path 5203" transform="translate(-752.679 -456.508)"/>
                                <path id="Path_5204" d="M758.733 465.609l5.157-.541.263-.575-5.159.554z" class="cls-43" data-name="Path 5204" transform="translate(-752.679 -456.508)"/>
                                <path id="Path_5205" d="M757.48 466.683l5.291-.532.264-.575-5.292.545z" class="cls-43" data-name="Path 5205" transform="translate(-752.679 -456.508)"/>
                                <path id="Path_5206" d="M757.016 467.677l5.941-.57.265-.579-5.943.586z" class="cls-43" data-name="Path 5206" transform="translate(-752.679 -456.508)"/>
                                <path id="Path_5207" d="M756.55 468.674l5.938-.543.266-.581-5.939.559z" class="cls-43" data-name="Path 5207" transform="translate(-752.679 -456.508)"/>
                                <path id="Path_5208" d="M756.083 469.674l5.934-.516.267-.583-5.936.531z" class="cls-43" data-name="Path 5208" transform="translate(-752.679 -456.508)"/>
                                <path id="Path_5209" d="M755.615 470.677l5.93-.488.268-.585-5.932.5z" class="cls-43" data-name="Path 5209" transform="translate(-752.679 -456.508)"/>
                                <path id="Path_5210" d="M755.145 471.684l5.927-.461.269-.586-5.929.476z" class="cls-43" data-name="Path 5210" transform="translate(-752.679 -456.508)"/>
                                <path id="Path_5211" d="M756.281 472.576l4.315-.315.269-.588-4.317.327z" class="cls-43" data-name="Path 5211" transform="translate(-752.679 -456.508)"/>
                                <path id="Path_5212" d="M754.2 473.707l2.177-.149.269-.58-2.178.155z" class="cls-43" data-name="Path 5212" transform="translate(-752.679 -456.508)"/>
                                <path id="Path_5213" d="M753.891 474.713l1.626-.1.27-.581-1.627.108z" class="cls-43" data-name="Path 5213" transform="translate(-752.679 -456.508)"/>
                                <path id="Path_5214" d="M752.762 477.389l5.313-.271c.168-.008.511-.467.765-1.023.254-.555.324-1 .156-.985l-5.32.32c-.16.01-.492.454-.745.994-.252.541-.331.976-.169.965z" class="cls-43" data-name="Path 5214" transform="translate(-752.679 -456.508)"/>
                            </g>
                            <g id="Group_4411" data-name="Group 4411" transform="translate(0 14.708)">
                                <g id="Group_4409" data-name="Group 4409" transform="translate(4.768)">
                                    <path id="Path_5215" d="M746.024 483.506l.465-.01 3.34-7.08-.467.026z" class="cls-45" data-name="Path 5215" transform="translate(-741.592 -471.216)"/>
                                    <path id="Path_5216" d="M745.459 483.518l.462-.01 2.45-5.183-.464.022z" class="cls-45" data-name="Path 5216" transform="translate(-741.592 -471.216)"/>
                                    <path id="Path_5217" d="M745.356 483.522l4-8.448-.461.026-4 8.429z" class="cls-45" data-name="Path 5217" transform="translate(-741.592 -471.216)"/>
                                    <path id="Path_5218" d="M744.339 483.543l.457-.01 2.849-6.006-.459.024z" class="cls-45" data-name="Path 5218" transform="translate(-741.592 -471.216)"/>
                                    <path id="Path_5219" d="M743.783 483.556l.454-.01 4.66-9.805-.458.032z" class="cls-45" data-name="Path 5219" transform="translate(-741.592 -471.216)"/>
                                    <path id="Path_5220" d="M743.231 483.568l.452-.01 3.638-7.643-.455.027z" class="cls-45" data-name="Path 5220" transform="translate(-741.592 -471.216)"/>
                                    <path id="Path_5221" d="M742.682 483.58l.449-.01 4.854-10.177-.453.033z" class="cls-45" data-name="Path 5221" transform="translate(-741.592 -471.216)"/>
                                    <path id="Path_5222" d="M742.136 483.592l.447-.01 5.908-12.367-.451.037z" class="cls-45" data-name="Path 5222" transform="translate(-741.592 -471.216)"/>
                                    <path id="Path_5223" d="M741.592 483.6l.444-.01 5.123-10.706-.448.034z" class="cls-45" data-name="Path 5223" transform="translate(-741.592 -471.216)"/>
                                </g>
                                <g id="Group_4410" data-name="Group 4410" transform="translate(0 .137)">
                                    <path id="Path_5224" d="M736.824 483.71l.423-.009 4.122-8.482-.427.028z" class="cls-45" data-name="Path 5224" transform="translate(-736.824 -471.353)"/>
                                    <path id="Path_5225" d="M737.341 483.7l.425-.009 2.812-5.8-.427.022z" class="cls-45" data-name="Path 5225" transform="translate(-736.824 -471.353)"/>
                                    <path id="Path_5226" d="M737.861 483.687l.427-.009 3.291-6.8-.43.024z" class="cls-45" data-name="Path 5226" transform="translate(-736.824 -471.353)"/>
                                    <path id="Path_5227" d="M738.383 483.675l.43-.01 2.081-4.3-.432.019z" class="cls-45" data-name="Path 5227" transform="translate(-736.824 -471.353)"/>
                                    <path id="Path_5228" d="M738.909 483.664l.432-.01 4.138-8.574-.436.028z" class="cls-45" data-name="Path 5228" transform="translate(-736.824 -471.353)"/>
                                    <path id="Path_5229" d="M739.437 483.652l.435-.01 3.613-7.5-.437.026z" class="cls-45" data-name="Path 5229" transform="translate(-736.824 -471.353)"/>
                                    <path id="Path_5230" d="M739.969 483.64l.437-.01 4.83-10.04-.441.032z" class="cls-45" data-name="Path 5230" transform="translate(-736.824 -471.353)"/>
                                    <path id="Path_5231" d="M740.5 483.628l.44-.01 5.891-12.266-.444.037z" class="cls-45" data-name="Path 5231" transform="translate(-736.824 -471.353)"/>
                                    <path id="Path_5232" d="M741.04 483.616l.442-.01 3.973-8.287-.445.028z" class="cls-45" data-name="Path 5232" transform="translate(-736.824 -471.353)"/>
                                </g>
                            </g>
                        </g>
                        <path id="Path_5233" d="M759.015 486.929l21.349-47.436-4.428.915-21.255 46.541z" class="cls-22" data-name="Path 5233" transform="translate(-736.824 -439.493)"/>
                        <path id="Path_5234" d="M773.654 448.009l1.888-.331 2.295-5.078-1.891.37z" class="cls-37" data-name="Path 5234" transform="translate(-736.824 -439.493)"/>
                        <g id="Group_4413" data-name="Group 4413" transform="translate(32.843 9.752)">
                            <path id="Path_5235" d="M774.159 451.33l.536-.086.9-2-.536.09z" class="cls-38" data-name="Path 5235" transform="translate(-769.667 -449.245)"/>
                            <path id="Path_5236" d="M771.11 451.819l2.959-.475.9-1.993-2.961.5z" class="cls-38" data-name="Path 5236" transform="translate(-769.667 -449.245)"/>
                            <path id="Path_5237" d="M770.438 453.293l3.583-.553.2-.448-3.584.56z" class="cls-38" data-name="Path 5237" transform="translate(-769.667 -449.245)"/>
                            <path id="Path_5238" d="M769.667 454.983l3.581-.528.2-.451-3.581.534z" class="cls-38" data-name="Path 5238" transform="translate(-769.667 -449.245)"/>
                        </g>
                        <g id="Group_4414" data-name="Group 4414" transform="translate(32.783 16.183)">
                            <path id="Path_5239" d="M772.337 456.005c-.078.174-.095.308-.038.3s.168-.155.246-.328.1-.307.037-.3-.167.155-.245.328z" class="cls-38" data-name="Path 5239" transform="translate(-769.606 -455.677)"/>
                            <path id="Path_5240" d="M772.068 456.043c-.078.173-.095.307-.037.3s.167-.155.245-.328.095-.307.037-.3-.167.156-.245.328z" class="cls-38" data-name="Path 5240" transform="translate(-769.606 -455.677)"/>
                            <path id="Path_5241" d="M771.8 456.081c-.078.173-.095.307-.038.3s.167-.154.245-.327.095-.306.038-.3-.167.154-.245.327z" class="cls-38" data-name="Path 5241" transform="translate(-769.606 -455.677)"/>
                            <path id="Path_5242" d="M771.533 456.119c-.078.172-.1.306-.038.3s.166-.155.245-.327.094-.306.037-.3-.166.155-.244.327z" class="cls-38" data-name="Path 5242" transform="translate(-769.606 -455.677)"/>
                            <path id="Path_5243" d="M771.266 456.156c-.078.173-.095.306-.038.3s.166-.154.244-.327.1-.305.038-.3-.166.155-.244.327z" class="cls-38" data-name="Path 5243" transform="translate(-769.606 -455.677)"/>
                            <path id="Path_5244" d="M771 456.194c-.078.172-.095.3-.039.3s.167-.154.245-.326.1-.305.038-.3-.166.154-.244.326z" class="cls-38" data-name="Path 5244" transform="translate(-769.606 -455.677)"/>
                            <path id="Path_5245" d="M770.734 456.231c-.078.173-.1.306-.038.3s.166-.154.244-.326.095-.3.038-.3-.166.155-.244.326z" class="cls-38" data-name="Path 5245" transform="translate(-769.606 -455.677)"/>
                            <path id="Path_5246" d="M770.469 456.269c-.078.172-.095.3-.038.3s.165-.154.243-.326.095-.3.039-.3-.166.157-.244.326z" class="cls-38" data-name="Path 5246" transform="translate(-769.606 -455.677)"/>
                            <path id="Path_5247" d="M770.205 456.306c-.078.172-.1.3-.039.3s.166-.154.244-.326.1-.3.038-.3-.165.155-.243.326z" class="cls-38" data-name="Path 5247" transform="translate(-769.606 -455.677)"/>
                            <path id="Path_5248" d="M769.941 456.343c-.077.172-.095.3-.039.3s.166-.153.243-.324.1-.3.039-.3-.165.153-.243.324z" class="cls-38" data-name="Path 5248" transform="translate(-769.606 -455.677)"/>
                            <path id="Path_5249" d="M769.678 456.38c-.077.172-.095.3-.039.3s.165-.153.243-.324.095-.3.039-.3-.165.153-.243.324z" class="cls-38" data-name="Path 5249" transform="translate(-769.606 -455.677)"/>
                        </g>
                        <g id="Group_4415" data-name="Group 4415" transform="translate(32.239 17.39)">
                            <path id="Path_5250" d="M771.792 457.213c-.078.174-.095.309-.038.3s.168-.155.246-.329.095-.308.038-.3-.168.155-.246.329z" class="cls-38" data-name="Path 5250" transform="translate(-769.062 -456.884)"/>
                            <path id="Path_5251" d="M771.523 457.25c-.078.173-.1.308-.038.3s.168-.155.246-.329.095-.308.038-.3-.169.155-.246.329z" class="cls-38" data-name="Path 5251" transform="translate(-769.062 -456.884)"/>
                            <path id="Path_5252" d="M771.256 457.286c-.079.174-.1.308-.039.3s.167-.155.246-.328.095-.308.038-.3-.167.155-.245.328z" class="cls-38" data-name="Path 5252" transform="translate(-769.062 -456.884)"/>
                            <path id="Path_5253" d="M770.988 457.323c-.078.173-.095.307-.038.3s.167-.154.245-.328.095-.307.038-.3-.166.154-.245.328z" class="cls-38" data-name="Path 5253" transform="translate(-769.062 -456.884)"/>
                            <path id="Path_5254" d="M770.722 457.359c-.079.173-.1.307-.039.3s.167-.154.245-.327.1-.307.039-.3-.167.154-.245.327z" class="cls-38" data-name="Path 5254" transform="translate(-769.062 -456.884)"/>
                            <path id="Path_5255" d="M770.456 457.4c-.079.173-.1.307-.039.3s.166-.154.244-.327.1-.307.039-.3-.166.149-.244.327z" class="cls-38" data-name="Path 5255" transform="translate(-769.062 -456.884)"/>
                            <path id="Path_5256" d="M770.19 457.431c-.078.173-.1.306-.039.3s.166-.154.245-.327.1-.306.039-.3-.166.154-.245.327z" class="cls-38" data-name="Path 5256" transform="translate(-769.062 -456.884)"/>
                            <path id="Path_5257" d="M769.926 457.467c-.079.172-.1.306-.04.3s.166-.154.244-.327.1-.306.04-.3-.17.16-.244.327z" class="cls-38" data-name="Path 5257" transform="translate(-769.062 -456.884)"/>
                            <path id="Path_5258" d="M769.662 457.5c-.079.172-.1.306-.04.3s.166-.153.244-.326.1-.3.039-.3-.165.157-.243.326z" class="cls-38" data-name="Path 5258" transform="translate(-769.062 -456.884)"/>
                            <path id="Path_5259" d="M769.4 457.539c-.078.172-.1.3-.04.3s.166-.154.244-.326.1-.3.039-.3-.167.154-.243.326z" class="cls-38" data-name="Path 5259" transform="translate(-769.062 -456.884)"/>
                            <path id="Path_5260" d="M769.135 457.575c-.078.171-.1.3-.04.3s.165-.153.243-.325.1-.3.04-.3-.165.15-.243.325z" class="cls-38" data-name="Path 5260" transform="translate(-769.062 -456.884)"/>
                        </g>
                        <path id="Path_5261" d="M766.517 462.724l2.754-.315c.218-.025.641-.591.944-1.262.3-.67.368-1.19.15-1.163l-2.757.344c-.212.026-.628.582-.929 1.242-.301.661-.379 1.178-.162 1.154z" class="cls-42" data-name="Path 5261" transform="translate(-736.824 -439.493)"/>
                    </g>
                </g>
            </g>
            <g id="Group_4421" data-name="Group 4421" transform="translate(0 74.018)">
                <g id="Group_4419" data-name="Group 4419" transform="translate(14.128 84.112)">
                    <path id="Path_5262" d="M545.19 647.286h-1.247l27.363-96.231h4.2z" class="cls-12" data-name="Path 5262" transform="translate(-543.943 -551.055)"/>
                    <path id="Path_5263" d="M583.416 647.286h-1.247l9.336-96.231h4.2z" class="cls-12" data-name="Path 5263" transform="translate(-543.943 -551.055)"/>
                    <path id="Path_5264" d="M656.79 647.286h1.247l-27.363-96.231h-4.2z" class="cls-12" data-name="Path 5264" transform="translate(-543.943 -551.055)"/>
                    <path id="Path_5265" d="M612.339 647.286h1.247l-3.194-96.231h-4.2z" class="cls-12" data-name="Path 5265" transform="translate(-543.943 -551.055)"/>
                </g>
                <g id="Group_4420" data-name="Group 4420">
                    <path id="Path_5266" d="M589.8 545.374l-16.505-34.21a22.894 22.894 0 0 0-20.62-12.946h-14.12l13.021 38.061a25.118 25.118 0 0 0 23.766 16.988h27.026a13.957 13.957 0 0 1-12.568-7.893z" class="cls-46" data-name="Path 5266" transform="translate(-529.815 -466.943)"/>
                    <path id="Path_5267" d="M630.742 497.607h-5.067a58.824 58.824 0 0 1-47.22-23.746 21.037 21.037 0 0 0-15.6-6.918h-5.4c-9.624 0-21.321 1.368-23.639 17.339l-1.344 13.325h21a22.892 22.892 0 0 1 20.619 12.945l16.505 34.21a13.961 13.961 0 0 0 12.573 7.894h52.8v-6.278c.004-18.35-12.793-48.771-25.227-48.771z" class="cls-31" data-name="Path 5267" transform="translate(-529.815 -466.943)"/>
                    <path id="Path_5268" d="M655.245 554.527h-52.8a16.033 16.033 0 0 1-14.311-8.691l-16.505-33.088a21.15 21.15 0 0 0-18.879-11.465h-21a1.869 1.869 0 1 1 0-3.736h21a25.043 25.043 0 0 1 22.35 13.577l16.5 33.088a12.138 12.138 0 0 0 10.833 6.579h52.8c1.079 0 1.079 3.736.012 3.736z" class="cls-47" data-name="Path 5268" transform="translate(-529.815 -466.943)"/>
                </g>
            </g>
            <g id="Group_4441" data-name="Group 4441" transform="translate(68.276)">
                <g id="Group_4431" data-name="Group 4431" transform="translate(0 111.805)">
                    <g id="Group_4425" data-name="Group 4425" transform="translate(20.333 11.372)">
                        <g id="Group_4424" data-name="Group 4424" transform="translate(108.533 79.02)">
                            <g id="Group_4423" data-name="Group 4423">
                                <g id="Group_4422" data-name="Group 4422">
                                    <path id="Path_5269" d="M741.979 595.122l2.311 7.871c1.749 5.974 5.553 22.349 11.1 24.539 1.079.715-11.242 10.864-12.047 10.234-.183-.144-5.624-17.375-5.713-17.572l-4.116-10.442q-1.769-4.5-3.9-8.872l-2.662-5.758z" class="cls-1" data-name="Path 5269" transform="translate(-726.957 -595.122)"/>
                                </g>
                                <path id="Path_5270" d="M753.916 625.606s6.486 5.217 7.342 6.088c.783.8 5.916 2.093 9.549 3.007 5.324 1.341 6.322 3.712 6.776 4.6a.455.455 0 0 1 .434.476l-.023.932s-15.286.684-21.461.08c0 0-5.037-3.37-5.359-.085l-12.5.061.091-3.6.625-.095a26.275 26.275 0 0 1 .24-8.921l.6-.169s-.4 1.706 4.119 2.073 6.9-.112 7.3-.9.267-.461.267-.461a2.982 2.982 0 0 1 2-3.086z" class="cls-5" data-name="Path 5270" transform="translate(-726.957 -595.122)"/>
                            </g>
                        </g>
                        <path id="Path_5271" d="M618.424 547.573L621.3 516.1l94.232 11.62a13.939 13.939 0 0 1 9.493 9.344s25.792 81.736 27.251 86.136l-6.652 2.372-9.752-2.447a263.022 263.022 0 0 1-26.113-55.688A41 41 0 0 1 706.4 554.6l-.7-7.56z" class="cls-48" data-name="Path 5271" transform="translate(-618.424 -516.102)"/>
                    </g>
                    <g id="Group_4430" data-name="Group 4430">
                        <g id="Group_4429" data-name="Group 4429" transform="translate(84.192 88.732)">
                            <g id="Group_4428" data-name="Group 4428">
                                <g id="Group_4427" data-name="Group 4427">
                                    <g id="Group_4426" data-name="Group 4426" transform="translate(1.861)">
                                        <path id="Path_5272" d="M687.4 611.924q.455-4.784.52-9.589l.31-8.873h15.093l-3.114 16.71c-1.142 6.1-4.4 21.09.893 24.224.582 1.114 15.906 7.973 14.612 9.071s-31.181-3.466-31.567-4.382c-.087-.208 2.2-15.852 2.212-16.066z" class="cls-1" data-name="Path 5272" transform="translate(-684.144 -593.462)"/>
                                    </g>
                                    <path id="Path_5273" d="M699.037 630.018s5.907 5.795 6.666 6.742c.7.867 5.667 2.633 9.187 3.881 5.158 1.83 5.9 4.282 6.26 5.205a.449.449 0 0 1 .383.514l-.121.926s-15.283-.742-21.365-1.919c0 0-4.658-3.822-5.323-.583l-12.441-1.1.468-3.569.632-.037a26.337 26.337 0 0 1 1.175-8.854l.62-.113s-.58 1.66 3.881 2.447 6.873.53 7.357-.219.314-.433.314-.433a3.022 3.022 0 0 1 2.307-2.888z" class="cls-5" data-name="Path 5273" transform="translate(-682.283 -593.462)"/>
                                </g>
                            </g>
                        </g>
                        <path id="Path_5274" d="M598.12 530.257c.9-9.021 1.308-12.05 5.8-25.527l34.015 2.932-.982 9.685c23.372 2.336 46.32 5.618 67.5 10.85 5.431 1.341 11.436 8.895 10.465 14.1 0 0-14.491 80.674-14.946 83.908l-6.447 2.681-9.376-2.48c-1.066-23.122.376-49.18 3.251-76.914a683.524 683.524 0 0 1-69.523.237c-15.989.005-20.185-14.846-19.757-19.472z" class="cls-4" data-name="Path 5274" transform="translate(-598.091 -504.73)"/>
                    </g>
                </g>
                <g id="Group_4436" data-name="Group 4436" transform="translate(24.573)">
                    <g id="Group_4432" data-name="Group 4432" transform="translate(0 33.888)">
                        <path id="Path_5275" d="M622.664 445.964l12.023 4.1 7.626-20.192-10.713-3.059z" class="cls-49" data-name="Path 5275" transform="translate(-622.664 -426.813)"/>
                        <path id="Path_5276" d="M639.7 436.779a24.649 24.649 0 0 1-2.638-1.709c-.634 2.019.249 8.034.249 8.034z" class="cls-50" data-name="Path 5276" transform="translate(-622.664 -426.813)"/>
                    </g>
                    <path id="Path_5277" d="M654.311 432.838a28.9 28.9 0 0 1-3.53 5.807c-1.133 1.309-3.694 1.107-5.925.36a23.914 23.914 0 0 1-10.706-6.611 40.235 40.235 0 0 1-4.886-6.971c-1.294-2.212-3.929-10.738.543-19.378 5.293-10.225 24.949-5.334 29.2 4.9a13.558 13.558 0 0 1 0 5.962l-.049.253a19.255 19.255 0 0 1-3.34 7.573 1.791 1.791 0 0 0-.259 1.834 17.779 17.779 0 0 0 2.509 3.64c1.054 1.148-3.557 2.631-3.557 2.631z" class="cls-49" data-name="Path 5277" transform="translate(-622.664 -392.925)"/>
                    <path id="Path_5278" d="M651.648 414.7c1.432-.124 3.033-2.356 3.341-4.932.212-1.767-.99-4.034-2.473-4.3 1.376-3.8-1.828-6.638-4.285-6.205a4.141 4.141 0 0 0-3.471-3.3 4.4 4.4 0 0 0-4.326 1.642 2.348 2.348 0 0 0-2.644-1.766 2.18 2.18 0 0 1-.754.157c-.489-.052-.83-.6-1.195-1.005a3.123 3.123 0 0 0-4.8.121c-1.267-1.515-4.5-1.1-5.588.946-.919-.58-4.213 1.285-4.416 4.674a4.685 4.685 0 0 0-3.893 1.856 6.638 6.638 0 0 0-1.261 4.9 2.53 2.53 0 0 0-1.581 1.8c-.278.862-.54 2.469.2 3.327-2.193 1.187-2.712 5.578-1.145 7.83a6.308 6.308 0 0 0-.4 6.473 3.762 3.762 0 0 0 5.019 1.739 3.881 3.881 0 0 0 5.352.759 2.573 2.573 0 0 0 3.029.025c1.3-.505 2.947-1.624 3.267-3.018-2.815-1.705-3.138-6.642-.571-8.466 2.185-1.552 3.78 2.179 3.623 3.464l1.591-.483a7.792 7.792 0 0 1 .525-1.915c.847-.974 2.169-1.406 2.591-1.965-2.047-1.888 1.609-1.836 1.886-2.341a1.834 1.834 0 0 1 2.048-1.026c2.985.75 6.537-.421 7.152-1.852a13.516 13.516 0 0 1-.421 9.042c1.314 1.969 3.377-.2 2.61-2.213 1.115.479 2.622-2.584.99-3.968z" class="cls-7" data-name="Path 5278" transform="translate(-612.249 -393.925)"/>
                    <g id="Group_4435" data-name="Group 4435" transform="translate(25.762 25.195)">
                        <path id="Path_5279" d="M657.413 418.919a6.505 6.505 0 0 0-3.349-.794 6.091 6.091 0 0 0-1.489.3 5.635 5.635 0 0 0-1.319.692l.041.074.819.729c.462-.066 1.25-.25 1.948-.375a24.716 24.716 0 0 0 2.631.172z" class="cls-51" data-name="Path 5279" transform="translate(-648.426 -418.12)"/>
                        <path id="Path_5280" d="M652.492 433.091l-.594-.216-2.8-1.018s-1.485 3.244-.034 3.986 3.428-2.752 3.428-2.752z" class="cls-52" data-name="Path 5280" transform="translate(-648.426 -418.12)"/>
                        <g id="Group_4434" data-name="Group 4434" transform="translate(3.597 3.962)">
                            <g id="Group_4433" data-name="Group 4433">
                                <path id="Path_5281" d="M654.166 424.085c-.425.77-1.187 1.164-1.7.88s-.59-1.139-.165-1.909 1.187-1.165 1.7-.881.59 1.139.165 1.91z" class="cls-51" data-name="Path 5281" transform="translate(-652.023 -422.083)"/>
                            </g>
                        </g>
                    </g>
                </g>
                <g id="Group_4440" data-name="Group 4440" transform="translate(1.248 38.932)">
                    <g id="Group_4437" data-name="Group 4437" transform="translate(16.682 10.2)">
                        <path id="Path_5282" d="M617.788 443.564c3.442-3.7 11.243.216 16.75 3.751l8.785 5.243 21 13.789 45.641 6.953 16.4 4.263 16.694 7.745h-2.753l-13.69-2.612-8.224-.011-6.632-2.868-48.469-.426c-14.63-5.758-25.911-10.2-42.538-22.464-4.652-3.148-6.321-9.757-2.964-13.363z" class="cls-53" data-name="Path 5282" transform="translate(-616.021 -442.057)"/>
                        <path id="Path_5283" d="M617.788 443.564c3.442-3.7 13.771.112 17.907 3.935l7.628 5.059 21.01 13.476 39.326 5.992-.206 8.974-40.186-.354c-14.63-5.758-25.882-11.463-42.509-23.726-4.658-3.141-6.327-9.75-2.97-13.356z" class="cls-54" data-name="Path 5283" transform="translate(-616.021 -442.057)"/>
                        <path id="Path_5284" d="M700.805 481.28l6.513.109.21-9.128-6.494-.9z" class="cls-17" data-name="Path 5284" transform="translate(-616.021 -442.057)"/>
                    </g>
                    <g id="Group_4438" data-name="Group 4438" transform="translate(0 5.016)">
                        <path id="Path_5285" d="M599.992 519.169c1.913.95 7.759 2.693 10.231 3.667.012 0 24.075 1.264 29.969-3.667.471-3.554 3.029-4.647 2.8-12.882-.282-10.155-5.044-27.811-4.428-32.118 1.236-8.651 6.048-12.99 3.006-19.359a56.752 56.752 0 0 0-3.006-5.466c-5.288-8.425-11.753-13.558-14.735-12.275-4.8 2.068-13.67 4.767-16.587 18.183-2.745 21.722.165 31.975-5 51.035-.635 2.305-4.389 11.813-2.25 12.882z" class="cls-55" data-name="Path 5285" transform="translate(-599.339 -436.873)"/>
                    </g>
                    <path id="Path_5286" d="M624.04 436.966l14.372 12.217 2.892-6.07-14.65-11.256z" class="cls-56" data-name="Path 5286" transform="translate(-599.339 -431.857)"/>
                    <path id="Path_5287" d="M613.169 519.769c.012 0-4.4.988-4.378 1a24.348 24.348 0 0 0 4.378 1.6c11.022 1 21.789.611 26.822-3.6.328-2.474 3.089-5.187 3-10.6-.191-11.629-5.357-30.7-4.6-36 1.236-8.651-23.23-24.1-23.717-21.252-.873 5.118 5.316 12.533 7.99 15s4.586 5.656 7.6 7.7a6.257 6.257 0 0 1 2.436 3.921c.345 2.068-.771 2.378-.724 4.468.063 2.822 1.544 2.745 2.578 6.167 2.294 7.463-.3 8.9-.653 10.22-.511 1.83 1 3.8.4 5.6-.535 1.6 1 7.664.118 8.5a20.13 20.13 0 0 1-5.778 2.723c-2.511.472-15.472 4.553-15.472 4.553z" class="cls-57" data-name="Path 5287" transform="translate(-599.339 -431.857)"/>
                    <path id="Path_5288" d="M624.04 436.966l14.372 12.217 1.772-8.029-13.531-9.3z" class="cls-58" data-name="Path 5288" transform="translate(-599.339 -431.857)"/>
                    <g id="Group_4439" data-name="Group 4439" transform="translate(15.335 13.253)">
                        <path id="Path_5289" d="M616.267 447.178c3.38-3.831 14.941-1.824 19.441 1.833l7.565 6.146 22.552 12.943 47.784 5.147 17.266 3.612 17.755 7.08-2.86.1-14.36-2.07-8.545.313-7.042-2.6-50.374 1.485c-15.505-5.167-27.46-9.167-45.386-20.76-5.006-2.957-7.091-9.493-3.796-13.229z" class="cls-1" data-name="Path 5289" transform="translate(-614.674 -445.11)"/>
                        <path id="Path_5290" d="M616.267 447.178c3.38-3.831 14.941-1.824 19.441 1.833l7.565 6.146 22.543 12.634 41.172 4.435.263 8.976-38.264.534a30.5 30.5 0 0 1-10.663-1.758c-12.707-4.541-22.463-9.352-38.261-19.571-5.006-2.957-7.091-9.493-3.796-13.229z" class="cls-55" data-name="Path 5290" transform="translate(-614.674 -445.11)"/>
                        <path id="Path_5291" d="M704.515 481.583l6.771-.147-.267-9.127-6.794-.642z" class="cls-17" data-name="Path 5291" transform="translate(-614.674 -445.11)"/>
                    </g>
                </g>
            </g>
        </g>
        <g id="Group_4450" data-name="Group 4450" transform="translate(241.485 36.613)">
            <g id="Group_4448" data-name="Group 4448" transform="translate(20.527 104.827)">
                <g id="Group_4447" data-name="Group 4447" transform="translate(0 .533)">
                    <path id="Path_5296" d="M841.255 428.815l-.432-1.833h-31.348l-.019.026a63.285 63.285 0 0 0-11.808 36.325l-.726 71.9h16.747l7.87-64.6 4.865 64.6h15.639l2.945-67a144.1 144.1 0 0 0-3.733-39.418z" class="cls-1" data-name="Path 5296" transform="translate(-791.827 -426.982)"/>
                    <g id="Group_4445" data-name="Group 4445" transform="translate(32.221 108.248)">
                        <path id="Path_5297" d="M845.827 644.7a37.137 37.137 0 0 1-5.482-7.155c-5.852-9.679-8.318-21.064-10.928-21.707a.973.973 0 0 0-.23-.039c-1.091.006-1.836 3.552-.678 13.92.515 4.619.56 9.6.6 14.35h1.383l.358-13.72s1.944.766 2.274 9.253c.1 2.427-.017 4.408 1.138 5.265 1.812 1.346 6.661 1.041 10.974.947.688-.014 1.036-.674.591-1.114z" class="cls-59" data-name="Path 5297" transform="translate(-824.048 -535.23)"/>
                        <path id="Path_5298" d="M838.859 609.45l3.183-74.216H826.4l-2.187 16.719a20.294 20.294 0 0 0-.083 4.483l4.878 52.8.4 6.607c2.61.643 5.076 12.028 10.928 21.707-1.708-9.322-1.727-18.05-1.477-28.1zm.09-3.326l.107-3.824-.107 3.824z" class="cls-1" data-name="Path 5298" transform="translate(-824.048 -535.23)"/>
                    </g>
                    <g id="Group_4446" data-name="Group 4446" transform="translate(0 108.248)">
                        <path id="Path_5299" d="M800.793 634.878c-.652-2.858.087-6.844.213-9.149a7.688 7.688 0 0 0 0-.744 24.2 24.2 0 0 0-.813-4.88c-.672-2.641-2.26-4.894-4.1-4.882-.69-.009-2.692-.427-3.384 4.256a31.915 31.915 0 0 0-.19 5.954c.505 11.5-2.181 20.327.565 21.442 2.806 1.141 8.676 1.085 10.3 0 .774-2.233-1.577-7.551-2.591-11.997z" class="cls-59" data-name="Path 5299" transform="translate(-791.827 -535.23)"/>
                        <path id="Path_5300" d="M796.922 535.23l-3.491 17.294a20.068 20.068 0 0 0-.4 3.847l-.231 51.759-.091 11.349c.692-4.683 2.694-4.265 3.384-4.256 1.843-.012 3.431 2.241 4.1 4.882a24.2 24.2 0 0 1 .813 4.88l1.52-15.047 11.14-74.708z" class="cls-1" data-name="Path 5300" transform="translate(-791.827 -535.23)"/>
                    </g>
                </g>
                <g id="Group_4918" data-name="Group 4918" transform="translate(.65)">
                    <g id="Group_4354-2" data-name="Group 4354">
                        <path id="Path_5087-2" d="M1002.991 433.811c2.8 19.442-.448 49.128-3 82.35-1.524 19.878-2.837 67.166-3.667 83.258h-9.667s-4.249-28.531-6.333-65.25-2-81.625-2-81.625l-4.662 46.292-14 100.583c-9.7-.32-10.055-1.924-10-2.583.776-9.448-.664-27.6 0-45.667.483-13.132 3.078-26.462 3.583-35.008 1.975-33.464-3.8-65.708 0-82.35s3.744-20.119 3.744-20.119l1.064-4.243h40.609a13.718 13.718 0 0 0 0 4.243s1.529.677 4.329 20.119z" class="cls-4" data-name="Path 5087" transform="translate(-949.478 -409.449)"/>
                    </g>
                </g>
            </g>
            <g id="Group_4444" data-name="Group 4444" transform="translate(0 39.959)">
                <path id="Path_5293" d="M828.492 360.724l-2.666 13.929-13.7-4.32 5.25-11.752z" class="cls-49" data-name="Path 5293" transform="translate(-770.3 -358.581)"/>
                <path id="Path_5294" d="M828.674 366.853c-3.608-.781-14.552-.611-18.315.246 0 0-13.021 5.46-13.6 5.814-1.088.663 3.833 26.256 3.833 26.256 2.163 10.369-5.282 34.343-7.934 54-1.9 14.073-5.333 67.667-5.333 67.667h64.667c.367-9.03 0-47.167-2.75-67.667-.1-.491-9.386-71.036-11.423-84.266z" class="cls-60" data-name="Path 5294" transform="translate(-770.3 -358.581)"/>
                <path id="Path_5292" d="M809.147 430.341a8.4 8.4 0 0 0-3.5-5.411 111.809 111.809 0 0 1-9-7.133h.008c-3.156-2.725-6.324-5.57-9.743-8.4a9.137 9.137 0 0 1-.15-.127c-.495-.408-.978-.818-1.484-1.225L797.66 395.5l7.634-6.814-8.535-16.772s-26.211 33.245-25.4 36.987c2.061 3.774 3.549 6.283 14.313 11.744l.424-.11c5.879 2.886 12.167 5.5 16.813 9.368-.35 1.238-1.711 6.447-2.562 10.053-.309.575-.5 8.363-.673 9.465a2.137 2.137 0 0 0 .16 1.235.776.776 0 0 0 .459.344l-.052.187-.007.018a3.506 3.506 0 0 0 .021.53 1.884 1.884 0 0 0 .2.792.731.731 0 0 0 .673.435.706.706 0 0 0 .483-.332.656.656 0 0 0 .51.294c.3-.005.635-.281 1.024-.845a1.107 1.107 0 0 0 .126-.271 2.013 2.013 0 0 0 .689-.367 1.61 1.61 0 0 0 .285-.327c.04-.062.076-.132.112-.2.014-.07.05-.139.064-.209.163-.555.294-1.112.425-1.668.256-1.12.491-2.24.726-3.362l.086-.422c.015-.071.024-.135.039-.218.007-.041.033-.122.052-.187.078-.268.173-.542.262-.81q.267-.8.566-1.605c.193-.529.4-1.051.622-1.572.089-.2.253-.747.347-.939.054 1.159-.159 2.9.2 3.85a3.342 3.342 0 0 0 .969.729c.178.068 1.508-8.614 1.508-8.614z" class="cls-1" data-name="Path 5292" transform="translate(-770.3 -358.581)"/>
                <g id="Group_4443" data-name="Group 4443" transform="translate(56.294 5.825)">
                    <path id="Path_5295" d="M890.844 380.211l-25.259 11.771s-24.079-21.423-24.349-21.65c-3.153-2.64-7.162-2.882-9.849.159a7.162 7.162 0 0 0 .844 10.286l29.558 21.741a6.522 6.522 0 0 0 7.689.028c7.757-5.617 25.445-18.647 26.165-18.81 1.885-.428 5.619-3.4 6.637-4.276 2.2-1.889-1.244-8.85-1.244-8.85s6.465-4.969 5.646-6.188c-.247-.368-8.659 5.481-8.659 5.481z" class="cls-1" data-name="Path 5295" transform="translate(-826.594 -364.405)"/>
                    <path id="Path_6140" d="M889.991 377.5l-24.5 14.167s-25.9-23.273-26.167-23.5c-3.153-2.64-6.313-1.041-9 2s-5.487 7.359-2.333 10l33.5 24.5a7.831 7.831 0 0 0 8.5 0c7.757-5.617 26.78-19.337 27.5-19.5 1.028-.231-2.862-12.033-7.5-7.667z" class="cls-60" data-name="Path 6140" transform="translate(-826.594 -364.405)"/>
                </g>
                <path id="Path_6141" d="M810.391 430.169a8.508 8.508 0 0 0-3.6-5.4c-3.146-2.2-7.221-4.452-10.143-6.972h1.012c-3.156-2.725-7.328-5.572-10.747-8.4a9.137 9.137 0 0 1-.15-.127c-.495-.408-.978-.818-1.484-1.225L797.66 395.5l7.634-6.814-8.535-16.772s-28.268 33.752-26.367 37.475c.933 2.11 4.121 7.316 14.885 12.777 6.97 4.207 10.469 6.136 15.115 10-.35 1.241 11.069 3.551 9.999-1.997z" class="cls-60" data-name="Path 6141" transform="translate(-770.3 -358.581)"/>
            </g>
            <g id="Group_4449" data-name="Group 4449" transform="translate(6.177)">
                <path id="Path_5302" d="M828.469 360.848s-8.023-1.124-11.447-1.314l10.36 6.99z" class="cls-61" data-name="Path 5302" transform="translate(-777.477 -321.622)"/>
                <path id="Path_5303" d="M806.158 347.739a22.5 22.5 0 0 0 8.029 10.923c3.714 2.7 17.77 2.219 19.094 2.027 3.3-.478 5.844-3.456 6.516-6.744a9.018 9.018 0 0 0 .146-1.034c.03-.379.045-.772.065-1.166.068-1.284.2-2.576 1.132-3.387a4.608 4.608 0 0 0 1.016-1.159c.611-1.3-1-1.705-1.712-2.391-1.677-1.61-2.054-3.712-2.48-6s-.221-4.779-1.278-6.848c-1.995-3.9-6.456-7.319-14.07-7.166a19.218 19.218 0 0 0-9.477 2.392 17.544 17.544 0 0 0-4.269 3.768c-3.98 4.413-4.609 11.155-2.712 16.785z" class="cls-49" data-name="Path 5303" transform="translate(-777.477 -321.622)"/>
                <path id="Path_5304" d="M788.711 384.968a53.365 53.365 0 0 1 3.123-8.045c2.025-3.91 15.758-1.979 19.157-4.879.375-.319-1.4-1.16-1-1.457-1.23.757-5.265-.785-6.25 0-1.084.87-1.494 3.815-2.25 4.55s1.6-.422 1.177 0-1.089 1.843-1.177 1.786.887-1.254 1.177-1.786-.682-1.334 0-2.183 4.486.058 5.573-.91.3-1.254 1.75-2.118c.36-.221-3.811-1.592-3.452-1.793s3.1-.814 3.452-.987c.71-.357 1.686-.153 2.355-.438 1.342-.564.489-2.032 1.532-2.369 2.031-.648-1.668-4.411-1.532-4.26l.444-.2c.275-.121.222-.778.024-.891-7.365-4.168-10.231-12.676-10.146-20.263.086-7.609 6.157-13.7 11.21-15.751a16.731 16.731 0 0 1 11.743.282c2.167-1.149 4.755-.524 7 .654l.31.1a26.1 26.1 0 0 1 3.819 1.534 25.285 25.285 0 0 1 6.083 4.2c.175.158.334.316.483.467s.292.29.42.426c.252.276.472.51.641.71a3.447 3.447 0 0 1 .491.649c-.005 0-.02 0-.041-.018l-5.221-2.361a29.323 29.323 0 0 1 3.887 5.5 21.7 21.7 0 0 0-6.271 3.317 50.165 50.165 0 0 0-3.875-4.9 9.945 9.945 0 0 1 .608 2.72 33.831 33.831 0 0 1 0 7.275c-.071.71-.173 1.4-.283 2.067s-.248 1.306-.4 1.911a15.937 15.937 0 0 1-1.12 3.155 4.911 4.911 0 0 1-1.884 2.286c-.4.206-.138-.319-.062-.453a17.08 17.08 0 0 0 1.77-5.5q.1-.541.182-1.086a7.506 7.506 0 0 1 .162-1.144 23.957 23.957 0 0 1-1.664 3.911c-.859 1.6-4.109 3.917-3.254 7.293 1.424 5.631 7.817 13.089 4.574 14.618-.831.391-3.918 3.922-4.574 4.55-.708.678-7.288-.912-7.6 0-1.3 3.8-5.852-3.74-7.325 0-1.973 5.01-4.7 6.9-5.786 12.118-.289 1.383-.068 5.315-.142 6.724a34.032 34.032 0 0 1-7.965 19.969c-5.5-1.989-21.028-11.745-21.1-12.218-.048-.285 9.194-10.544 11.227-16.762z" class="cls-62" data-name="Path 5304" transform="translate(-777.477 -321.622)"/>
                <path id="Path_6142" d="M788.711 384.968a53.365 53.365 0 0 1 3.123-8.045 34.592 34.592 0 0 1 8.41-10.215c.375-.319 12.4-6.759 12.546-6.824.275-.121.222-.778.024-.891-7.365-4.168-10.231-12.676-10.146-20.263.086-7.609 6.157-13.7 11.21-15.751 6.313-3.01 16.5-.242 18.738.936l.31.1a26.1 26.1 0 0 1 3.819 1.534c2.62 1.291 1.481.929 2.846 2.224.175.158-8.328 22.545-9 23.8-2.513 4.692 5.9 17.6 2.025 20.6-2.625 3.5-2.625 3.5-5.375 4.754s-7.417.413-7.917 0c-2.333-.421-6.13-3.634-6.858-1.786-1.973 5.01-4.7 6.9-5.786 12.118-.289 1.383-.068 5.315-.142 6.724a34.032 34.032 0 0 1-7.965 19.969c-5.5-1.989-21.028-11.745-21.1-12.218-.037-.289 9.205-10.548 11.238-16.766z" class="cls-63" data-name="Path 6142" transform="translate(-777.477 -321.622)"/>
            </g>
        </g>
    </g>
</svg>
