<svg xmlns="http://www.w3.org/2000/svg" width="61.641" height="87.024" viewBox="0 0 61.641 87.024"><g transform="translate(-224.16 -22.168)"><rect width="53.179" height="76.449" transform="translate(228.515 27.365)" fill="#e0e0e0"/><path d="M-4251.148,6749.624c0-.142,4.638-.259,10.362-.259s10.361.117,10.361.259a102.78,102.78,0,0,1-10.361.263A102.752,102.752,0,0,1-4251.148,6749.624Zm-.3-3.293a103.148,103.148,0,0,1,10.362-.261,103.18,103.18,0,0,1,10.362.261,103.18,103.18,0,0,1-10.362.261A103.148,103.148,0,0,1-4251.445,6746.331Zm0-5.482a20.5,20.5,0,0,1,4.594-.261,20.48,20.48,0,0,1,4.592.261,20.427,20.427,0,0,1-4.592.261A20.442,20.442,0,0,1-4251.445,6740.849Zm-17.934-2.373a12.551,12.551,0,0,1,3.584-.261,12.555,12.555,0,0,1,3.586.261,12.639,12.639,0,0,1-3.586.261A12.635,12.635,0,0,1-4269.379,6738.476Zm0-3.378a40.491,40.491,0,0,1,6.451-.259,40.5,40.5,0,0,1,6.449.259,40.114,40.114,0,0,1-6.449.261A40.106,40.106,0,0,1-4269.379,6735.1Zm18.231-2.411a103.134,103.134,0,0,1,10.362-.261,103.162,103.162,0,0,1,10.361.261,103.451,103.451,0,0,1-10.361.259A103.423,103.423,0,0,1-4251.148,6732.687Zm-18.231-.967a40.254,40.254,0,0,1,6.451-.259,40.262,40.262,0,0,1,6.449.259,39.809,39.809,0,0,1-6.449.261A39.8,39.8,0,0,1-4269.379,6731.72Zm17.934-2.328a103.323,103.323,0,0,1,10.362-.261,103.355,103.355,0,0,1,10.362.261,103.085,103.085,0,0,1-10.362.261A103.052,103.052,0,0,1-4251.445,6729.392Zm-17.934-1.048a40.106,40.106,0,0,1,6.451-.261,40.114,40.114,0,0,1,6.449.261,40.5,40.5,0,0,1-6.449.259A40.491,40.491,0,0,1-4269.379,6728.344Zm17.934-4.435a20.535,20.535,0,0,1,4.594-.259,20.52,20.52,0,0,1,4.592.259,20.237,20.237,0,0,1-4.592.263A20.251,20.251,0,0,1-4251.445,6723.909Zm-17.934-1.651a40.069,40.069,0,0,1,6.451-.261,40.077,40.077,0,0,1,6.449.261,40.114,40.114,0,0,1-6.449.261A40.106,40.106,0,0,1-4269.379,6722.257Zm0-3.378a40.106,40.106,0,0,1,6.451-.261,40.114,40.114,0,0,1,6.449.261,40.114,40.114,0,0,1-6.449.261A40.106,40.106,0,0,1-4269.379,6718.879Zm18.231-2.5a103.038,103.038,0,0,1,10.362-.261,103.066,103.066,0,0,1,10.361.261,103.162,103.162,0,0,1-10.361.261A103.134,103.134,0,0,1-4251.148,6716.384Zm-18.231-.883a40.491,40.491,0,0,1,6.451-.259,40.5,40.5,0,0,1,6.449.259,40.114,40.114,0,0,1-6.449.261A40.106,40.106,0,0,1-4269.379,6715.5Zm17.934-2.412a103.148,103.148,0,0,1,10.362-.261,103.18,103.18,0,0,1,10.362.261,103.18,103.18,0,0,1-10.362.261A103.148,103.148,0,0,1-4251.445,6713.089Zm-17.934-.966a40.528,40.528,0,0,1,6.451-.259,40.537,40.537,0,0,1,6.449.259,39.7,39.7,0,0,1-6.449.263A39.692,39.692,0,0,1-4269.379,6712.124Zm0-3.376a40.106,40.106,0,0,1,6.451-.261,40.114,40.114,0,0,1,6.449.261,40.114,40.114,0,0,1-6.449.261A40.106,40.106,0,0,1-4269.379,6708.748Zm17.934-1.14a20.46,20.46,0,0,1,4.594-.261,20.446,20.446,0,0,1,4.592.261,20.446,20.446,0,0,1-4.592.261A20.46,20.46,0,0,1-4251.445,6707.607Zm-18.546-3.873c-.008-1.992-.017-4.157-.025-6.449,0-1.149-.007-2.33-.008-3.536,0-.6,0-1.211,0-1.828v-1.858c-.131.13-.016.012.1-.1.091-.091.183-.183.159-.158l13.672.036h.229l0,.224c-.047,4.079-.086,7.5-.115,9.986q-.038,1.7-.06,2.751a6.414,6.414,0,0,1-.051.937,9,9,0,0,1-.052-1.03q-.023-1.07-.06-2.8c-.026-2.405-.066-5.7-.112-9.616-3.873.011-8.383.023-13.19.034v1.6c0,.617,0,1.225,0,1.828,0,1.206,0,2.387-.007,3.536-.01,2.208-.018,4.3-.026,6.228l1.266.014a3.79,3.79,0,0,1,.178-.337,5.909,5.909,0,0,1,.96-1.222,6.468,6.468,0,0,1,3.73-1.82,1.021,1.021,0,0,1-.05-.261.879.879,0,0,1,.037-.335,3.281,3.281,0,0,1-.634-.214,3.617,3.617,0,0,1-1.581-1.413,3.394,3.394,0,0,1-.352-.79.5.5,0,0,1-.251.021.657.657,0,0,1-.559-.525.543.543,0,0,1,.118-.463.479.479,0,0,1,.356-.154.367.367,0,0,1,.2.059h0a5.764,5.764,0,0,1,.234-1.638,3.013,3.013,0,0,1,1.46-1.854,2.55,2.55,0,0,1,.769-.258,2.438,2.438,0,0,1,.387-.1,3.01,3.01,0,0,1,2.283.611,3.976,3.976,0,0,1,1.409,2.917h.026a.556.556,0,0,1,.491.422.555.555,0,0,1-.256.595c-.151.085-.263.049-.266.008-.013-.062.276-.246.219-.533a.426.426,0,0,0-.206-.256c0,.012,0,.023,0,.036a4.5,4.5,0,0,1-.442,2.068,2.728,2.728,0,0,1-1.635,1.391.98.98,0,0,1,.052.266c.014.216-.033.4-.107.433a7.064,7.064,0,0,1,3.939,1.847,5.967,5.967,0,0,1,1,1.191,2.159,2.159,0,0,1,.237.484,2.643,2.643,0,0,1,.44.032,5.877,5.877,0,0,1-.937.051q-1.055.026-2.753.06l-9.984.115-.226,0Zm10.066-.108,2.8.058c.217.006.4.011.552.017a7.474,7.474,0,0,0-1.345-1.511,7.326,7.326,0,0,0-4.547-1.763,6.406,6.406,0,0,0-4.524,1.7,7.727,7.727,0,0,0-1.2,1.4C-4264.862,6703.567-4262.047,6703.6-4259.925,6703.626Zm-2.526-3.512c.23.009.456.028.677.057a.6.6,0,0,1-.137-.4,1.019,1.019,0,0,1,.006-.218,3.337,3.337,0,0,1-1.294.046.944.944,0,0,1,.054.273,1.008,1.008,0,0,1-.014.256q.215-.016.437-.016C-4262.631,6700.108-4262.542,6700.111-4262.451,6700.115Zm-2.937-2.339a3.183,3.183,0,0,0,3.521,1.442,2.438,2.438,0,0,0,1.579-1.267,4.261,4.261,0,0,0,.425-1.926,3.858,3.858,0,0,0-1.267-3.017c-.044-.036-.089-.069-.134-.1a1.633,1.633,0,0,1-.218.666,2.663,2.663,0,0,1-1.677,1.089,5.773,5.773,0,0,1-1.98.13c-.25-.022-.45-.049-.588-.076A4.081,4.081,0,0,0-4265.388,6697.775Zm-.91-1.54a.281.281,0,0,0-.191.34c.053.276.328.375.47.441a3.285,3.285,0,0,1-.108-.8h-.045A.35.35,0,0,0-4266.3,6696.236Zm1.926-3.547a2.966,2.966,0,0,0-1.308,1.809l-.021.094c.139-.01.333-.016.568-.021a8.153,8.153,0,0,0,1.893-.211,2.789,2.789,0,0,0,1.574-.91,2.952,2.952,0,0,0,.323-.6,2.947,2.947,0,0,0-1.916-.5,4.681,4.681,0,0,0-.827.2.435.435,0,0,1,.036-.028C-4264.146,6692.563-4264.253,6692.62-4264.372,6692.688Zm14.831,6.337a28.79,28.79,0,0,1,5.48-.261,28.784,28.784,0,0,1,5.479.261,29.111,29.111,0,0,1-5.479.259A29.116,29.116,0,0,1-4249.541,6699.026Zm-13.886-1.372c-.187-.166-.235-.315-.2-.337s.149.064.342.159a1.442,1.442,0,0,0,.744.165c.624-.044.967-.52,1.034-.469.034.019,0,.174-.156.362a1.266,1.266,0,0,1-.855.418l-.082,0A1.268,1.268,0,0,1-4263.427,6697.654Zm.9-.7c-.024-.051.224-.166.363-.449a.71.71,0,0,1-.306-.159,1.02,1.02,0,0,1-.3-.956c.042-.244.106-.378.147-.373s.058.156.073.381a.991.991,0,0,0,.281.71.435.435,0,0,0,.293.117l.23-.012-.075.2a.79.79,0,0,1-.648.568C-4262.509,6696.98-4262.532,6696.971-4262.529,6696.956Zm12.749-1.084c0-.144,4.906-.259,10.96-.259s10.957.115,10.957.259-4.906.261-10.957.261S-4249.78,6696.016-4249.78,6695.872Zm-14.548,0a.169.169,0,0,1-.15-.185.169.169,0,0,1,.159-.18.171.171,0,0,1,.152.187.171.171,0,0,1-.158.178Zm3.048-.43a.171.171,0,0,1-.154-.185.171.171,0,0,1,.161-.179.172.172,0,0,1,.153.185.173.173,0,0,1-.157.18Zm12.591-2.151a1.851,1.851,0,0,1-.86-1.364,1.954,1.954,0,0,1,.52-1.521,1.884,1.884,0,0,1,1.164-.578c.75-.066,1.133.256,1.1.3-.012.034-.1.022-.239.01a2.433,2.433,0,0,0-.8.054,1.63,1.63,0,0,0-.867.534,1.569,1.569,0,0,0-.362,1.147,1.467,1.467,0,0,0,.608,1.018,1.55,1.55,0,0,0,.979.264c.629-.037,1.05-.158,1.073-.076.015.056-.331.3-1.037.442a1.94,1.94,0,0,1-.348.031A1.717,1.717,0,0,1-4248.689,6693.29Zm4.2-.169a13.244,13.244,0,0,1-1.631-3.3,10.9,10.9,0,0,1,1.838,2.622,11.021,11.021,0,0,1,1.652-2.773,13.151,13.151,0,0,1-1.386,3.4l-.007.012-.22.449Z" transform="translate(4503.582 -6656.972)" fill="#263238" stroke="rgba(0,0,0,0)" stroke-miterlimit="10" stroke-width="1"/><path d="M-4212.26,6775.692v-1.89l-2.442.018c-2.683.014-6.6.033-11.607.055l-12.643.033v1.785h-2.817v-1.777l-25.5.066v1.023h-2.817v-2.819h1.394c-.007-11.463-.015-24.3-.023-38.1h-1.371v-2.82h1.369c-.007-12.287-.016-25.306-.024-38.783h-1.345v-2.819h2.817v.644l25.5.009v-.653h2.817v.654l26.692.011v-.665h2.818v2.819h-.98c-.028,14.427-.053,27.521-.076,38.783h1.056v2.82h-1.061c-.012,6.145-.023,11.7-.033,16.58-.027,7.309-.049,13.088-.062,17.063-.012,1.959-.022,3.471-.029,4.51l-.007.631h1.193v2.819Zm-14.182-2.017,11.657.053,2.525.02v-.875h1.584l-.008-.686c-.006-1.051-.015-2.576-.029-4.557-.015-3.986-.036-9.785-.063-17.115-.009-4.837-.02-10.341-.032-16.425h-1.452v-2.82h1.447c-.022-11.255-.048-24.35-.076-38.783h-1.371v-1.678l-26.692.01v1.667h-2.817v-1.667l-25.5.01v1.657h-.955c-.008,13.477-.016,26.5-.023,38.783h.978v2.82h-.979c-.008,13.8-.016,26.632-.022,38.1h1v1.382l25.5.067v-.762h2.817v.769Z" transform="translate(4494.743 -6667)" fill="#e8505b" stroke="rgba(0,0,0,0)" stroke-miterlimit="10" stroke-width="1"/></g></svg>