<?xml version="1.0" encoding="utf-8"?>
<!-- Generator: Adobe Illustrator 24.0.0, SVG Export Plug-In . SVG Version: 6.00 Build 0)  -->
<svg version="1.1" id="Layer_1" xmlns="http://www.w3.org/2000/svg" xmlns:xlink="http://www.w3.org/1999/xlink" x="0px" y="0px"
	 viewBox="0 0 427.2 421.1" style="enable-background:new 0 0 427.2 421.1;" xml:space="preserve">
<style type="text/css">
	.st0{fill:#E0E0E0;}
	.st1{fill:#F5F5F5;}
	.st2{fill:#EBEBEB;}
	.st3{fill:#FFFFFF;}
	.st4{fill:none;stroke:#4E585D;stroke-width:2.000000e-02;stroke-miterlimit:10;}
	.st5{fill:#E8505B;}
	.st6{opacity:0.4;enable-background:new    ;}
	.st7{fill:#FFBE9D;}
	.st8{fill:#6161DB;}
	.st9{fill:#263238;}
	.st10{fill:#EAB9A4;}
	.st11{fill:#3A3A3A;}
	.st12{fill:#6B6BF9;}
</style>
<g transform="translate(-32.916 -46.664)">
	<path class="st0" d="M339.2,367.8l-2.3,97.8h-4.3l0.3-97.6L339.2,367.8z"/>
	<path class="st0" d="M354.8,366.7l21,98.9h4.8l-17.5-98.9H354.8z"/>
	<path class="st0" d="M315.5,367.8l-23.2,97.8h-4.8l21.1-98.2L315.5,367.8z"/>
	<path class="st1" d="M376.3,267.9c0,0,25.1-1.4,22.6,27.6s-4,58.5-13.3,68.6s-103.4,10.4-111.3,2.2s15.1-7.9,19.4-7.9
		s30.9,2.5,39.5-20.1S339.7,266.4,376.3,267.9z"/>
	<path class="st0" d="M377.9,267.9c0,0,19.2,3.9,17.4,24s-6.8,55.3-16.2,64.3s-45.9,10.9-65.7,9.7c-23-1.4-37.5-5.8-37.5-5.8
		s-4.2,2.7-2.9,4.4s12.5,8.7,66.8,7.6s50.5-9.2,52.8-17.9s7-55.4,6.3-65.7S393.2,269.7,377.9,267.9z"/>
	<path class="st2" d="M362.2,307c0.3,1.2,1.5,1.8,2.6,1.6c1.2-0.3,1.8-1.5,1.6-2.6c-0.2-1-1.1-1.6-2.1-1.6
		C363,304.5,362,305.7,362.2,307z"/>
	<path class="st2" d="M363.6,295.2c-0.4,1.3-0.6,2.6-0.7,3.9c0,1.4,0.3,2.8,0.9,4.1c0.4,0.7,0.8,1.4,1.4,2c0.3,0.3,0.7,0.7,1,1
		c0.3,0.5,0.5,1,0.4,1.6c-0.3,0.9-0.6,1.8-1.1,2.6c-0.2,0.8-0.3,1.6-0.3,2.4c0,1.4,0.4,2.8,1,4c0.7,1.1,1.5,2.2,2.4,3.1
		c0,0-0.4-0.1-0.9-0.6c-0.8-0.6-1.4-1.4-1.9-2.3c-0.8-1.3-1.2-2.8-1.3-4.3c0-0.9,0.1-1.8,0.3-2.7c0.4-0.8,0.7-1.6,1-2.5
		c0.2-0.8-0.5-1.4-1.1-2c-0.6-0.7-1.1-1.4-1.5-2.2c-0.6-1.4-0.9-2.9-0.8-4.4c0.1-1,0.3-2,0.7-2.9
		C363.3,295.5,363.6,295.2,363.6,295.2z"/>
	<path class="st2" d="M357.9,303.6c0.1,0,0,0.6,0.3,1.5c0.4,1.1,1.1,2.1,2.1,2.8c1,0.7,2.2,1.1,3.4,1.2c0.9,0.1,1.6,0.2,1.6,0.3
		c0,0.1-0.6,0.3-1.6,0.2c-1.3,0-2.7-0.4-3.8-1.1c-1.1-0.8-1.9-2-2.2-3.3C357.5,304.2,357.8,303.5,357.9,303.6z"/>
	<path class="st0" d="M419.8,466.5h3.7l-5.9-143.4l-3.7,0.2L419.8,466.5z"/>
	<path class="st0" d="M211.7,466.7l3.7,0.2l7-143.4l-3.7-0.2L211.7,466.7z"/>
	<path class="st0" d="M246.5,467.6l3.7,0.2l6.9-142.4l-3.7-0.2L246.5,467.6z"/>
	<path class="st0" d="M443.2,466.5h3.7l-6-143.3l-3.7,0.2L443.2,466.5z"/>
	<rect x="205.3" y="321.6" class="st0" width="245.5" height="7.4"/>
	<path class="st2" d="M224.2,274.4l17.5,46.4h79.5l-0.6-2.4l-32.1-0.9l-14.8-43.1L224.2,274.4z"/>
	<path class="st3" d="M259.4,297.5c0.6,1.7-0.2,3.5-1.9,4.1c0,0-0.1,0-0.1,0c-1.8,0.3-3.5-0.9-3.9-2.7c-0.6-1.7,0.2-3.5,1.9-4.1
		c0,0,0.1,0,0.1,0C257.3,294.5,259,295.7,259.4,297.5z"/>
	<g transform="translate(-20.929 -30)">
		<g transform="translate(377.859 87.309)">
			<rect x="0" y="0" class="st2" width="28" height="38.5"/>
		</g>
		<g transform="translate(123.763 87.309)">
			<rect x="0" y="0" class="st2" width="28" height="38.5"/>
		</g>
		<g transform="translate(323.355 76.664)">
			<rect x="0" class="st2" width="34.1" height="49"/>
			<g transform="translate(13.298 8.82)">
				<path class="st4" d="M0,0"/>
			</g>
		</g>
		<g transform="translate(174.647 76.664)">
			<rect x="0" class="st2" width="34.1" height="49"/>
			<g transform="translate(13.298 8.82)">
				<path class="st4" d="M0,0"/>
			</g>
		</g>
	</g>
	<path class="st5" d="M213.7,155.3l2.1,33.4c0.1,1.2,1.1,2.1,2.3,2.1h60.2c1.2,0,2.3-1,2.3-2.3c0,0,0,0,0,0v-26c0-1.2-1-2.3-2.3-2.3
		c0,0,0,0,0,0l-37,0.2c-0.6,0-1.2-0.2-1.6-0.6l-6.4-6.3c-0.4-0.4-1-0.6-1.6-0.6h-15.6c-1.2,0-2.3,1-2.3,2.3
		C213.7,155.2,213.7,155.3,213.7,155.3z"/>
	<path class="st6" d="M213.7,155.3l2.1,33.4c0.1,1.2,1.1,2.1,2.3,2.1h60.2c1.2,0,2.3-1,2.3-2.3c0,0,0,0,0,0v-26c0-1.2-1-2.3-2.3-2.3
		c0,0,0,0,0,0l-37,0.2c-0.6,0-1.2-0.2-1.6-0.6l-6.4-6.3c-0.4-0.4-1-0.6-1.6-0.6h-15.6c-1.2,0-2.3,1-2.3,2.3
		C213.7,155.2,213.7,155.3,213.7,155.3z"/>
	<path class="st5" d="M209.9,169.3l5,41c0.1,0.7,0.7,1.3,1.4,1.3h64.1c0.8,0,1.4-0.6,1.4-1.3l3.2-41c0.1-0.8-0.5-1.5-1.3-1.6
		c0,0-0.1,0-0.1,0h-72.3c-0.8,0-1.5,0.7-1.5,1.5C209.9,169.2,209.9,169.2,209.9,169.3z"/>
	<path class="st5" d="M130.8,173.6l2.2,28.4c0.1,1,0.9,1.8,1.9,1.8l51.2-0.7c1.1,0,1.9-0.9,1.9-1.9c0,0,0,0,0,0l-0.3-22.2
		c0-1.1-0.9-1.9-1.9-1.9c0,0,0,0,0,0l-31.5,0.6c-0.5,0-1-0.2-1.4-0.5l-5.6-5.3c-0.4-0.3-0.9-0.5-1.4-0.5l-13.3,0.2
		c-1.1,0-1.9,0.9-1.9,1.9C130.8,173.6,130.8,173.6,130.8,173.6z"/>
	
		<rect x="131.9" y="174.1" transform="matrix(0.9999 -1.399863e-02 1.399863e-02 0.9999 -2.6562 2.2566)" class="st1" width="56" height="33.5"/>
	<path class="st5" d="M127.2,177.6l4.8,34.8c0.1,0.6,0.6,1.1,1.2,1.1l54.6-0.8c0.6,0,1.2-0.5,1.2-1.2l2.3-34.9
		c0-0.7-0.5-1.3-1.2-1.3c0,0-0.1,0-0.1,0l-61.6,0.9c-0.7,0-1.2,0.6-1.2,1.3C127.2,177.5,127.2,177.5,127.2,177.6z"/>
	<path class="st5" d="M312.5,171.2l2.1,27.8c0.1,1,0.9,1.8,1.9,1.7l50.1-0.7c1,0,1.9-0.9,1.9-1.9l-0.3-21.7c0-1-0.9-1.9-1.9-1.9
		c0,0,0,0,0,0l-30.8,0.6c-0.5,0-1-0.2-1.3-0.5l-5.4-5.2c-0.4-0.3-0.8-0.5-1.3-0.5l-13,0.2c-1,0-1.9,0.9-1.9,1.9
		C312.5,171.2,312.5,171.2,312.5,171.2z"/>
	<path class="st6" d="M312.5,171.2l2.1,27.8c0.1,1,0.9,1.8,1.9,1.7l50.1-0.7c1,0,1.9-0.9,1.9-1.9l-0.3-21.7c0-1-0.9-1.9-1.9-1.9
		c0,0,0,0,0,0l-30.8,0.6c-0.5,0-1-0.2-1.3-0.5l-5.4-5.2c-0.4-0.3-0.8-0.5-1.3-0.5l-13,0.2c-1,0-1.9,0.9-1.9,1.9
		C312.5,171.2,312.5,171.2,312.5,171.2z"/>
	
		<rect x="313.6" y="171.7" transform="matrix(0.9999 -1.399863e-02 1.399863e-02 0.9999 -2.599 4.7907)" class="st2" width="54.7" height="32.7"/>
	<path class="st5" d="M309,175.1l4.7,34c0.1,0.6,0.6,1.1,1.2,1l53.3-0.8c0.6,0,1.1-0.5,1.2-1.1l2.2-34.1c0-0.7-0.5-1.2-1.1-1.3
		c0,0-0.1,0-0.1,0l-60.2,0.9c-0.7,0-1.2,0.6-1.2,1.2C309,175,309,175,309,175.1z"/>
	<path class="st7" d="M231.4,217.7l-5.4,2.6l-4.9-7.7l2.9-6c0.3-0.6,0.6-1.2,0.9-1.9c0.4-0.8,0.6-1.7,0.6-2.6
		c0.1-1.1,0.1-2.3-0.1-3.4c-0.3-1,0.8-1.8,1.5-1.2s1.5,3.3,1,6.6s3.3-0.2,4.7-1.4s6-4.9,6.7-4.8c1.1,0.2,1,1.4-0.4,2.6
		c-1.5,1.2-5.5,5.2-4.9,5.9h0c1.7,0.2,3.1,1.4,3.5,3.1c0.4,1.6,0.7,3.9-0.3,4.6C235.4,215.4,233.4,216.6,231.4,217.7z"/>
	<path class="st7" d="M136.5,351.1l7.2,110.1l8.7-2.3c0,0,8.4-106.9,7.7-106.8S136.5,351.1,136.5,351.1z"/>
	<path class="st7" d="M101.4,350.5L82.6,459.6l7.8-2.2l28.4-102.9L101.4,350.5z"/>
	<path class="st8" d="M113.7,194.9c-5.5,2.4-28.4,31.8-30,50.8c-1.2,14.2,26.4,12.7,26.4,12.7s1.9-58.3,1.1-57.5"/>
	<path class="st9" d="M246.5,466.2c-118,0-213.6,0.1-213.6,0.3s95.6,0.3,213.6,0.3c118,0,213.6-0.1,213.6-0.3
		C460.1,466.3,364.5,466.2,246.5,466.2z M380.5,65.1c0-0.1-2-0.1-4.5-0.1c-2.5,0-4.5,0.1-4.5,0.1c0,0.1,2,0.1,4.5,0.1
		C378.5,65.2,380.5,65.1,380.5,65.1z M376,70.1c-1.5-0.1-3-0.1-4.5,0C373.1,70.3,374.6,70.3,376,70.1z M365.3,71.6
		c-1.5-0.1-3-0.1-4.5,0C362.3,71.7,363.8,71.7,365.3,71.6z M367.6,73.7c-2.3-0.1-4.5-0.1-6.8,0C363.1,73.9,365.3,73.9,367.6,73.7z
		 M365.3,77.4c-1.5-0.1-3-0.1-4.5,0C362.3,77.5,363.8,77.5,365.3,77.4z M367.6,79.6c-2.3-0.1-4.5-0.1-6.8,0
		C363.1,79.7,365.3,79.7,367.6,79.6z M365.3,83c-1.5-0.1-3-0.1-4.5,0C362.3,83.1,363.8,83.1,365.3,83z M367.6,85.1
		c-2.3-0.1-4.5-0.1-6.8,0C363.1,85.2,365.3,85.2,367.6,85.1z M381.8,73.9c0-0.1-2.3-0.1-5.1-0.1s-5.1,0-5.1,0.1s2.3,0.1,5.1,0.1
		S381.8,73.9,381.8,73.9z M375.6,77.6c-1.3-0.1-2.7-0.1-4,0C372.9,77.8,374.3,77.8,375.6,77.6z M381.8,81.4c0-0.1-2.3-0.1-5.1-0.1
		s-5.1,0-5.1,0.1c0,0.1,2.3,0.1,5.1,0.1S381.8,81.4,381.8,81.4z M381.8,85.1c0-0.1-2.3-0.1-5.1-0.1s-5.1,0-5.1,0.1s2.3,0.1,5.1,0.1
		S381.8,85.2,381.8,85.1z M381.2,89c0-0.1-2.3-0.1-5.1-0.1S371,89,371,89c0,0.1,2.3,0.1,5.1,0.1S381.2,89.1,381.2,89z M360.9,68.9
		L360.9,68.9l5.4,0l1.5,0c0.3,0,0.5,0,0.5,0s-0.2,0-0.5,0l-1.5,0l-5.2,0c0-0.6,0-1.2,0-1.8c0.2-0.1,0.4-0.3,0.6-0.4l1.6-1.3l1.3,0.9
		l0.1,0l0.1-0.1l0.1-0.1c0.8-0.7,1.5-1.4,2.2-2.1l0.9,0.6c0.1,0.1,0.2,0.1,0.3,0.2c0,0.7,0,1.4,0,2c0,0.6,0,1.1,0,1.5
		c0,0.3,0,0.5,0,0.5s0-0.2,0-0.5c0-0.4,0-0.9,0-1.5c0-1.4,0-3.2,0-5.3v-0.1h-0.1l-7.3,0l-0.1,0.1v3.9
		C360.9,66.6,360.9,67.8,360.9,68.9L360.9,68.9z M361.1,65.4v-3.8l7.1,0c0,1.1,0,2.2,0,3.1c-0.1-0.1-0.2-0.2-0.3-0.2
		c-0.3-0.2-0.6-0.5-1-0.7l-0.1,0l0,0l-2.3,2.1l-1.3-0.9l-0.1,0l-0.1,0l-1.6,1.4c-0.2,0.1-0.3,0.3-0.5,0.5
		C361.1,66.4,361.1,65.9,361.1,65.4z M364.2,64.2c0.3,0.1,0.7,0,0.9-0.2c0.4-0.4,0.3-0.8,0.3-0.8c0,0,0.1-0.4-0.3-0.8
		c-0.3-0.2-0.6-0.3-0.9-0.2c-0.3,0.1-0.5,0.3-0.6,0.6C363.4,63.4,363.7,64,364.2,64.2z M364.3,62.5c0.3-0.1,0.5-0.1,0.8,0.1
		c0.2,0.2,0.3,0.4,0.4,0.6c-0.1,0.3-0.2,0.5-0.4,0.6c-0.2,0.2-0.5,0.2-0.8,0.1c-0.2-0.1-0.4-0.2-0.5-0.5
		C363.7,63.1,363.9,62.6,364.3,62.5z M126.4,65.1c0-0.1-2-0.1-4.5-0.1c-2.5,0-4.5,0.1-4.5,0.1c0,0.1,2,0.1,4.5,0.1
		C124.4,65.2,126.4,65.1,126.4,65.1z M121.9,70.1c-1.5-0.1-3-0.1-4.5,0C119,70.3,120.5,70.3,121.9,70.1z M111.2,71.6
		c-1.5-0.1-3-0.1-4.5,0C108.2,71.7,109.7,71.7,111.2,71.6z M110.1,73.8c1.1,0,2.3,0,3.4-0.1c-1.1-0.1-2.3-0.1-3.4-0.1
		c-1.1,0-2.3,0-3.4,0.1C107.8,73.8,109,73.9,110.1,73.8z M111.2,77.4c-1.5-0.1-3-0.1-4.5,0C108.2,77.5,109.7,77.5,111.2,77.4z
		 M110.1,79.7c1.1,0,2.3,0,3.4-0.1c-1.1-0.1-2.3-0.1-3.4-0.1c-1.1,0-2.3,0-3.4,0.1C107.8,79.7,109,79.7,110.1,79.7z M111.2,83
		c-1.5-0.1-3-0.1-4.5,0C108.2,83.1,109.7,83.1,111.2,83z M110.1,85.2c1.1,0,2.3,0,3.4-0.1c-1.1-0.1-2.3-0.1-3.4-0.1
		c-1.1,0-2.3,0-3.4,0.1C107.8,85.2,109,85.2,110.1,85.2z M127.7,73.9c0-0.1-2.3-0.1-5.1-0.1c-2.8,0-5.1,0-5.1,0.1s2.3,0.1,5.1,0.1
		C125.4,74,127.7,73.9,127.7,73.9z M121.5,77.6c-1.3-0.1-2.7-0.1-4,0C118.8,77.8,120.2,77.8,121.5,77.6z M127.7,81.4
		c0-0.1-2.3-0.1-5.1-0.1c-2.8,0-5.1,0-5.1,0.1c0,0.1,2.3,0.1,5.1,0.1C125.4,81.5,127.7,81.4,127.7,81.4z M127.7,85.1
		c0-0.1-2.3-0.1-5.1-0.1c-2.8,0-5.1,0-5.1,0.1s2.3,0.1,5.1,0.1C125.4,85.2,127.7,85.2,127.7,85.1z M127.1,89c0-0.1-2.3-0.1-5.1-0.1
		c-2.8,0-5.1,0-5.1,0.1c0,0.1,2.3,0.1,5.1,0.1C124.9,89.1,127.1,89.1,127.1,89z M110.1,64.2c0.3,0.1,0.7,0,0.9-0.2
		c0.4-0.4,0.3-0.8,0.3-0.8c0,0,0.1-0.4-0.3-0.8c-0.3-0.2-0.6-0.3-0.9-0.2c-0.3,0.1-0.5,0.3-0.6,0.6C109.3,63.4,109.6,64,110.1,64.2z
		 M110.2,62.5c0.3-0.1,0.5-0.1,0.8,0.1c0.2,0.2,0.3,0.4,0.4,0.6c-0.1,0.3-0.2,0.5-0.4,0.6c-0.2,0.2-0.5,0.2-0.8,0.1
		c-0.2-0.1-0.4-0.2-0.5-0.5C109.6,63.1,109.8,62.6,110.2,62.5z M106.8,68.9L106.8,68.9l5.4,0l1.5,0c0.3,0,0.5,0,0.5,0
		c0,0-0.2,0-0.5,0l-1.5,0l-5.2,0c0-0.6,0-1.2,0-1.8c0.2-0.1,0.4-0.3,0.6-0.4l1.6-1.3l1.3,0.9l0.1,0l0.1-0.1l0.1-0.1
		c0.8-0.7,1.5-1.4,2.2-2.1l0.9,0.6c0.1,0.1,0.2,0.1,0.3,0.2c0,0.7,0,1.4,0,2c0,0.6,0,1.1,0,1.5c0,0.3,0,0.5,0,0.5c0,0,0,0,0,0
		s0-0.2,0-0.5c0-0.4,0-0.9,0-1.5c0-1.4,0-3.2,0-5.3v-0.1h-0.1l-7.3,0l-0.1,0.1v3.9C106.8,66.6,106.8,67.8,106.8,68.9L106.8,68.9z
		 M107,65.4v-3.8l7.1,0c0,1.1,0,2.2,0,3.1c-0.1-0.1-0.2-0.2-0.3-0.2l-1-0.7l-0.1,0l0,0l-2.3,2.1l-1.3-0.9l-0.1,0l-0.1,0l-1.6,1.4
		c-0.2,0.1-0.3,0.3-0.5,0.5C107,66.4,107,65.9,107,65.4z M323.4,61.7c-2-0.2-3.9-0.2-5.9,0C319.4,61.9,321.4,61.9,323.4,61.7z
		 M310.4,69.4c-1.5-0.2-3.1-0.2-4.6,0C307.3,69.6,308.8,69.6,310.4,69.4z M314,62.9c-2.8-0.2-5.5-0.2-8.3,0
		C308.5,63.1,311.3,63.1,314,62.9z M314,67.2c-2.8-0.2-5.5-0.2-8.3,0C308.5,67.4,311.3,67.4,314,67.2z M314,65.1
		c-2.8-0.2-5.5-0.2-8.3,0C308.5,65.3,311.3,65.3,314,65.1z M324.1,65.3c3.7,0,6.6-0.1,6.6-0.2s-3-0.2-6.6-0.2
		c-3.7,0-6.6,0.1-6.6,0.2S320.4,65.3,324.1,65.3z M324.3,67.1c-3.7,0-6.6,0.1-6.6,0.2c0,0.1,3,0.2,6.6,0.2c3.7,0,6.6-0.1,6.6-0.2
		C330.9,67.2,328,67.1,324.3,67.1z M323.4,72.1c-2-0.2-3.9-0.2-5.9,0C319.4,72.3,321.4,72.3,323.4,72.1z M324.1,75.5
		c-3.7,0-6.6,0.1-6.6,0.2s3,0.2,6.6,0.2c3.7,0,6.6-0.1,6.6-0.2C330.7,75.5,327.8,75.5,324.1,75.5z M324.3,77.6
		c-3.7,0-6.6,0.1-6.6,0.2s3,0.2,6.6,0.2c3.7,0,6.6-0.1,6.6-0.2C330.9,77.6,328,77.6,324.3,77.6z M323.4,83c-2-0.2-3.9-0.2-5.9,0
		C319.4,83.2,321.4,83.2,323.4,83z M324.1,86.3c-3.7,0-6.6,0.1-6.6,0.2c0,0.1,3,0.2,6.6,0.2c3.7,0,6.6-0.1,6.6-0.2
		C330.7,86.4,327.8,86.3,324.1,86.3z M330.9,88.6c0-0.1-3-0.2-6.6-0.2c-3.7,0-6.6,0.1-6.6,0.2s3,0.2,6.6,0.2
		C328,88.7,330.9,88.7,330.9,88.6z M332.6,56.2c0-0.1-3.1-0.2-7-0.2s-7,0.1-7,0.2c0,0.1,3.1,0.2,7,0.2
		C329.4,56.3,332.6,56.3,332.6,56.2z M318.7,58.2c2.3,0.2,4.7,0.2,7,0C323.4,58,321,58,318.7,58.2z M319.2,54.5
		c0.2,0.1,0.5,0.2,0.8,0.1c0.5-0.1,0.7-0.2,0.7-0.3c0,0-0.3,0-0.7,0.1c-0.2,0-0.4,0-0.6-0.2c-0.2-0.2-0.4-0.4-0.4-0.7
		c0-0.5,0.3-1,0.8-1.1c0.4-0.1,0.6,0,0.7,0c0,0-0.2-0.2-0.7-0.2c-0.7,0.1-1.1,0.7-1.1,1.3C318.7,54,318.9,54.3,319.2,54.5z
		 M322.1,54.7l0.1-0.3v0c0.4-0.7,0.7-1.4,0.9-2.2c-0.4,0.6-0.8,1.2-1.1,1.8c-0.3-0.6-0.7-1.2-1.2-1.7c0.3,0.7,0.6,1.5,1.1,2.1
		L322.1,54.7z M311.3,54.1c-0.3,0.1-0.3,0.3-0.2,0.3s0.1-0.1,0.3-0.1c0.1,0,0.2,0,0.3,0C311.7,54.3,311.6,54.1,311.3,54.1z
		 M311.2,53.3c-0.2,0-0.3,0-0.5,0c-0.2,0-0.3-0.2-0.4-0.4l0-0.2l-0.1,0.1l0,0c-0.4,0.4-1,0.6-1.6,0.6c0,0,0.2,0.1,0.5,0.1
		c0.4,0,0.8-0.2,1.1-0.5c0.1,0.2,0.3,0.3,0.5,0.4c0.2,0,0.4,0,0.6,0c0.3-0.1,0.5-0.2,0.5-0.3C311.7,53.2,311.5,53.2,311.2,53.3z
		 M309.3,54.4c-0.2,0-0.3,0.1-0.3,0.2c0,0,0.2,0,0.3,0c0.1,0,0.2,0,0.3,0C309.6,54.5,309.5,54.4,309.3,54.4z M310.7,55L310.7,55
		l0-0.1c-0.1-0.1-0.1-0.2-0.2-0.3c-0.2-0.3-0.2-0.6-0.3-0.6c-0.1,0-0.1,0.3,0.1,0.7c0,0.1,0.1,0.2,0.2,0.2c-0.1,0.1-0.1,0.2-0.1,0.2
		C310.4,55.2,310.6,55.2,310.7,55z M309.6,55.5c-0.1,0,0.3,0.5,0.9,0.4c0.6-0.1,0.8-0.6,0.8-0.6c0,0-0.3,0.4-0.8,0.4
		C310.2,55.7,309.9,55.6,309.6,55.5z M305.8,55.1c0,1.5,0,2.8,0,4.1v0.1h0.1l6.4-0.1l1.8,0c0.2,0,0.4,0,0.6,0c0,0,0,0,0,0
		c-0.2,0-0.4,0-0.7,0l-0.5,0c0-0.1-0.1-0.2-0.1-0.2c-0.1-0.2-0.3-0.5-0.5-0.6c-0.1-0.1-0.2-0.1-0.2-0.2c0.1,0,0.3,0,0.4-0.1
		c0.2-0.1,0.3-0.3,0.3-0.5c0.1-0.2,0.1-0.5,0-0.7c-0.1-0.2,0.2-0.4,0.2-0.7c0.1-0.3,0-0.6-0.1-0.9c-0.2-0.3-0.4-0.5-0.5-0.7
		c-0.3-0.5-0.3-1.1-0.5-1.6c-0.2-0.5-0.6-0.8-1.1-0.9c-0.4-0.1-0.9-0.1-1.3,0.1c-0.4-0.2-0.8-0.2-1.2,0c-0.5,0.2-0.9,0.6-1,1.1
		c-0.1,0.3-0.2,0.6-0.2,0.9c0,0.3,0.1,0.6,0,0.9c0,0.3-0.3,0.4-0.5,0.7c-0.1,0.3-0.1,0.7,0.1,0.9c0.1,0.1,0,0.2,0,0.3
		c0,0.1-0.1,0.3,0,0.4c0.1,0.2,0.2,0.5,0.4,0.6c0.1,0.1,0.3,0.1,0.5,0.1c-0.1,0.1-0.2,0.2-0.3,0.2c-0.2,0.2-0.4,0.4-0.5,0.7
		c0,0,0,0,0,0.1l-1.2,0c0-1.2,0-2.6,0-4v-4.5l8.5,0c0,2.5,0.1,4.6,0.1,6.2c0,0.7,0,1.3,0,1.8c0,0.2,0,0.4,0,0.7c0-0.2,0-0.4,0-0.6
		c0-0.5,0-1.1,0-1.8c0-1.7,0-3.8,0.1-6.4v-0.1h-0.1l-8.8,0c0,0-0.3,0.3-0.2,0.2V55.1z M311.3,52.3c0.4,0.1,0.8,0.4,1,0.8
		c0.1,0.6,0.3,1.1,0.5,1.7c0.2,0.3,0.4,0.5,0.5,0.7c0.1,0.2,0.2,0.5,0.1,0.7c0,0.1-0.1,0.2-0.1,0.3c-0.1,0.1-0.1,0.3-0.1,0.4
		c0.1,0.2,0.1,0.4,0,0.6c0,0.3-0.3,0.5-0.6,0.5c0,0-0.1,0-0.1,0c-0.4-0.3-0.8-0.4-1.3-0.5c0-0.1,0.1-0.2,0.1-0.4c0-0.2,0-0.3,0-0.4
		c0.3-0.2,0.6-0.4,0.7-0.7c0.1-0.2,0.2-0.5,0.2-0.8c0,0,0.1,0,0.1,0c0.1-0.1,0.2-0.2,0.3-0.3c0.1-0.3-0.1-0.5-0.4-0.6c0,0,0,0,0,0
		c-0.1-0.6-0.4-1.2-0.9-1.7c-0.3-0.2-0.6-0.3-1-0.4C310.8,52.2,311.1,52.2,311.3,52.3z M311.2,57.5c-0.3,0-0.5-0.1-0.8-0.1
		c-0.2,0-0.4,0-0.6,0.1c0-0.1,0-0.2,0-0.3c0-0.1,0-0.2-0.1-0.3c0.4,0.1,0.8,0.2,1.3,0.1c0.1,0,0.2-0.1,0.3-0.1
		c0,0.1-0.1,0.2-0.1,0.3C311.2,57.2,311.2,57.4,311.2,57.5z M310.9,56.7c-0.9,0.2-1.8-0.2-2.3-0.9c-0.3-0.6-0.4-1.4-0.2-2.1
		c0.1-0.5,0.4-0.9,0.8-1.2c0.1-0.1,0.2-0.1,0.2-0.1c0,0,0,0-0.1,0c0.2-0.1,0.3-0.1,0.5-0.1c0.5,0,1,0.1,1.4,0.4
		c0.5,0.5,0.8,1.2,0.8,1.9C312.3,55.5,311.8,56.4,310.9,56.7z M312.4,54.4c0.1,0.1,0.2,0.1,0.2,0.3c0,0.2-0.1,0.3-0.2,0.4
		c0-0.1,0-0.3,0-0.4C312.4,54.6,312.4,54.5,312.4,54.4z M310.3,52.2c-0.1,0-0.1,0-0.2,0c0,0,0,0-0.1,0
		C310.1,52.2,310.2,52.2,310.3,52.2z M307.8,57.8c-0.2-0.1-0.3-0.3-0.3-0.5c0-0.1,0-0.2,0-0.3c0.1-0.1,0.1-0.3,0-0.5
		c-0.2-0.2-0.2-0.5-0.1-0.7c0.1-0.2,0.4-0.4,0.5-0.8c0-0.3,0-0.6,0-0.9c0-0.3,0.1-0.6,0.2-0.8c0.2-0.4,0.5-0.8,0.9-1
		c0.4-0.2,0.8-0.2,1.1-0.1c0,0,0,0,0,0c-0.1,0-0.2,0-0.3,0.1c-0.1,0-0.3,0.1-0.4,0.1c-0.5,0.3-0.8,0.7-0.9,1.2
		c-0.1,0.3-0.1,0.7-0.1,1c0,0-0.1,0-0.1,0.1c-0.1,0.1-0.2,0.2-0.2,0.4c0,0.3,0.2,0.5,0.5,0.5c0,0,0,0,0,0c0,0.1,0.1,0.2,0.1,0.3
		c0.2,0.4,0.6,0.7,1,0.9c0,0.1,0,0.2,0,0.4c0,0.1,0,0.2,0.1,0.3c-0.5,0.1-0.9,0.3-1.3,0.5C308.1,58,307.9,58,307.8,57.8z
		 M308.3,55.4c-0.1,0-0.2-0.1-0.2-0.2c0-0.2,0-0.3,0.1-0.4C308.2,55,308.3,55.2,308.3,55.4z M307.9,58.5c0.7-0.6,1.6-0.9,2.4-0.9
		c0.9,0,1.8,0.2,2.5,0.8c0.3,0.2,0.5,0.5,0.7,0.8l-1.3,0l-4.9-0.1C307.6,58.9,307.7,58.6,307.9,58.5z M306.1,50.4
		C306.2,50.4,306.2,50.4,306.1,50.4L306.1,50.4z M174.7,61.7c-2-0.2-3.9-0.2-5.9,0C170.7,61.9,172.7,61.9,174.7,61.7z M161.2,64.9
		c-1.4-0.1-2.8,0-4.1,0.2c1.4,0.2,2.8,0.2,4.1,0.2c1.4,0.1,2.8,0,4.1-0.2C163.9,64.9,162.6,64.9,161.2,64.9z M161.2,62.7
		c-1.4-0.1-2.8,0-4.1,0.2c1.4,0.2,2.8,0.2,4.1,0.2c1.4,0.1,2.8,0,4.1-0.2C163.9,62.7,162.6,62.7,161.2,62.7z M161.2,67.1
		c-1.4-0.1-2.8,0-4.1,0.2c1.4,0.2,2.8,0.2,4.1,0.2c1.4,0.1,2.8,0,4.1-0.2C163.9,67.1,162.6,67,161.2,67.1z M157.1,69.4
		c1.5,0.2,3.1,0.2,4.6,0C160.1,69.2,158.6,69.2,157.1,69.4z M175.4,65.3c3.7,0,6.6-0.1,6.6-0.2s-3-0.2-6.6-0.2s-6.6,0.1-6.6,0.2
		S171.7,65.3,175.4,65.3z M175.6,67.1c-3.7,0-6.6,0.1-6.6,0.2c0,0.1,3,0.2,6.6,0.2s6.6-0.1,6.6-0.2
		C182.2,67.2,179.3,67.1,175.6,67.1z M174.7,72.1c-2-0.2-3.9-0.2-5.9,0C170.7,72.3,172.7,72.3,174.7,72.1z M175.4,75.5
		c-3.7,0-6.6,0.1-6.6,0.2s3,0.2,6.6,0.2s6.6-0.1,6.6-0.2C182,75.5,179.1,75.5,175.4,75.5z M175.6,77.6c-3.7,0-6.6,0.1-6.6,0.2
		s3,0.2,6.6,0.2s6.6-0.1,6.6-0.2C182.2,77.6,179.3,77.6,175.6,77.6z M174.7,83c-2-0.2-3.9-0.2-5.9,0C170.7,83.2,172.7,83.2,174.7,83
		z M175.4,86.3c-3.7,0-6.6,0.1-6.6,0.2c0,0.1,3,0.2,6.6,0.2s6.6-0.1,6.6-0.2C182,86.4,179.1,86.3,175.4,86.3z M182.2,88.6
		c0-0.1-3-0.2-6.6-0.2s-6.6,0.1-6.6,0.2s3,0.2,6.6,0.2S182.2,88.7,182.2,88.6z M183.9,56.2c0-0.1-3.1-0.2-7-0.2c-3.9,0-7,0.1-7,0.2
		c0,0.1,3.1,0.2,7,0.2C180.7,56.3,183.9,56.3,183.9,56.2z M170,58.2c2.3,0.2,4.7,0.2,7,0C174.7,58,172.3,58,170,58.2z M160.4,54.3
		c-0.2,0-0.3,0.1-0.3,0.2c0,0,0.2,0,0.3,0c0.1,0,0.2,0,0.3,0C160.7,54.5,160.6,54.3,160.4,54.3z M162.4,54.1c-0.3,0-0.3,0.3-0.2,0.3
		s0.1-0.1,0.3-0.1s0.2,0,0.3,0C162.8,54.3,162.7,54.1,162.4,54.1z M157,55c0,1.5,0,2.8,0,4.1v0.1h0.1l6.4-0.1l1.8,0
		c0.2,0,0.4,0,0.6,0c-0.2,0-0.4,0-0.7,0l-0.5,0c0-0.1-0.1-0.2-0.1-0.2c-0.1-0.2-0.3-0.5-0.5-0.6c-0.5-0.4-1-0.7-1.6-0.8
		c0-0.1,0.1-0.2,0.1-0.4c0-0.2,0-0.3,0-0.4c0.3-0.2,0.6-0.4,0.7-0.7c0.1-0.2,0.2-0.4,0.2-0.6c0,0.9,0.2,1.8,0.4,2.7
		c0-1-0.1-1.9-0.4-2.8c0,0,0,0,0-0.1c0,0,0.1,0,0.1,0c0.1-0.1,0.2-0.2,0.3-0.3c0.1-0.3-0.1-0.5-0.4-0.6c0,0,0,0,0,0
		c-0.1-0.6-0.4-1.2-0.9-1.7c-0.4-0.3-0.9-0.5-1.5-0.4c-0.1,0-0.2,0-0.3,0.1c-0.1,0-0.3,0.1-0.4,0.1c-0.5,0.3-0.8,0.7-0.9,1.2
		c-0.1,0.3-0.1,0.7-0.1,1c0,0-0.1,0-0.1,0.1c-0.1,0.1-0.2,0.2-0.2,0.4c0,0.2,0.2,0.4,0.4,0.5c0,0.1,0,0.6,0,1.3
		c0,0.6-0.1,1.1-0.1,1.3c-0.1,0.1-0.2,0.1-0.3,0.2c-0.2,0.2-0.4,0.4-0.5,0.7c0,0,0,0,0,0.1l-1.2,0c0-1.2,0-2.6,0-4v-4.5l8.5,0
		c0,2.5,0,4.6,0.1,6.2c0,0.7,0,1.3,0,1.8c0,0.2,0,0.4,0,0.7c0,0,0,0,0,0c0-0.2,0-0.4,0-0.6c0-0.5,0-1.1,0-1.8c0-1.7,0-3.8,0.1-6.4
		v-0.1h-0.1l-8.8,0c0,0-0.3,0.3-0.2,0.2V55z M163.6,54.6c0-0.1,0-0.1,0-0.2c0.1,0.1,0.2,0.1,0.2,0.3c0,0.2-0.1,0.3-0.2,0.4
		C163.5,54.9,163.6,54.7,163.6,54.6z M159.7,53.6c0.1-0.5,0.4-0.9,0.8-1.2c0.1-0.1,0.2-0.1,0.2-0.1c0,0,0,0-0.1,0
		c0.2-0.1,0.3-0.1,0.5-0.1c0.5,0,1,0.1,1.4,0.4c0.5,0.5,0.8,1.2,0.8,1.9c0.1,0.9-0.4,1.7-1.3,2c-0.9,0.2-1.8-0.2-2.3-0.9
		C159.5,55.1,159.4,54.3,159.7,53.6z M162.3,57.4c-0.3,0-0.5-0.1-0.8-0.1c-0.2,0-0.4,0-0.6,0.1c0-0.1,0-0.2,0-0.3
		c0-0.1,0-0.2-0.1-0.3c0.4,0.1,0.9,0.2,1.3,0.1c0.1,0,0.2-0.1,0.3-0.1c0,0.1-0.1,0.2-0.1,0.3C162.3,57.2,162.3,57.3,162.3,57.4z
		 M159.3,55.1c0-0.2,0-0.3,0.1-0.4c0,0.2,0,0.4,0.1,0.6C159.4,55.3,159.3,55.2,159.3,55.1z M159.4,55.5
		C159.5,55.5,159.5,55.5,159.4,55.5c0.1,0,0.1,0,0.1,0c0,0.1,0.1,0.2,0.1,0.3c0.2,0.4,0.6,0.7,1,0.9c0,0.1,0,0.2,0,0.4
		c0,0.1,0,0.2,0.1,0.3c-0.5,0.1-1,0.3-1.5,0.6C159.7,57.2,159.7,56.3,159.4,55.5z M159.1,58.4c0.7-0.6,1.6-0.9,2.4-0.9
		c0.9,0,1.8,0.2,2.5,0.8c0.3,0.2,0.5,0.5,0.7,0.8l-1.3,0l-4.9-0.1C158.7,58.8,158.9,58.6,159.1,58.4z M160.2,53.5
		c0.4,0,0.8-0.2,1.1-0.5c0.1,0.2,0.3,0.3,0.5,0.4c0.2,0,0.4,0,0.6,0c0.3-0.1,0.5-0.2,0.5-0.3c0,0-0.2,0-0.5,0.1c-0.2,0-0.3,0-0.5,0
		c-0.2,0-0.3-0.2-0.4-0.4l0-0.2l-0.1,0.1l0,0c-0.4,0.4-1,0.6-1.6,0.6C159.7,53.5,159.9,53.6,160.2,53.5z M161.9,54.9L161.9,54.9
		l0-0.1c-0.1-0.1-0.1-0.2-0.2-0.3c-0.2-0.3-0.2-0.6-0.3-0.6c-0.1,0-0.1,0.3,0.1,0.7c0,0.1,0.1,0.2,0.2,0.2c-0.1,0.1-0.1,0.2-0.1,0.2
		C161.6,55.1,161.7,55.1,161.9,54.9z M160.8,55.4c-0.1,0,0.3,0.5,0.9,0.4c0.6-0.1,0.8-0.6,0.8-0.6c0,0-0.3,0.4-0.8,0.4
		C161.4,55.6,161,55.6,160.8,55.4z M133.6,312.8l9.8,144.3l9.1-0.7l5.3-59.5c3.3-37.3,4.5-74.8,3.7-112.2l-0.2-7.4l-54.3,4.5
		l-6.2,38.2L83.3,455.6l7.1,1.8L133.6,312.8z M102.9,238.8c0.8-0.9,1.9-1.6,2.4-2.2c0.3-0.4,0.5-0.9,0.5-1.3c-0.3,0.3-0.6,0.6-0.9,1
		c-0.5,0.6-1.3,1.5-2.1,2.4c-0.8,0.9-1.6,1.8-2.2,2.4c-0.3,0.3-0.6,0.6-0.9,1c0.4-0.3,0.7-0.6,1-0.9
		C101.3,240.6,102.1,239.7,102.9,238.8z"/>
	<path class="st10" d="M145.6,190.6l1.6-8.1c0,0,5.1-0.3,6.5-3c0.6-1.1,0.2-5.1-1.4-11c-0.2-0.6-0.2-2-0.4-2.7c-0.4-1.3-3.6-3.6-4-6
		c-1.5-8.8-2.9-10.8-6.1-12.4c-7.2-3.5-28.6,2.1-28.1,12.1s5.1,14.2,14.2,25.7l-0.3,1.9c-0.8,5,2.6,9.8,7.6,10.6c1,0.2,2,0.2,3,0
		l0,0C141.9,197.2,144.9,194.3,145.6,190.6z"/>
	<path class="st11" d="M143,136.1c0.4,1.1,0.3,2.4-0.3,3.4c0-2.1-2.6-3.6-4.7-3s-3.1,2.2-3.7,4.3c0.3-0.8,1.2-1.2,2-0.9
		c0.2,0.1,0.4,0.2,0.6,0.4c0.7,0.9,0.6,2.1-0.1,3c-0.7,0.8-1.7,1.4-2.7,1.6c-2.5,0.6-5,0.9-7.5,0.9c-2.5,0-5.1,0.3-7.5,0.9
		c-2.5,0.6-4.6,2.2-5.9,4.4c-1.2,2.4-0.8,5.4,1,7.4c-5.3,4.3,2.1,13.6,5.4,17.7s8.5,9.7,8.5,9.7l4.3-8c0,0-6.4-4.1-5.1-7.2
		c1.3-3.1,4.7,0.1,4.7,0.1s4.3,11.5,6.1,11.7s13.5,4.1,17.1,1.4s-2.2-14-2.2-14l-6.2,1.1c-5.7,1-11.2-2.4-12.7-8l0,0
		c0,0,7.1,0.2,6.6-5.6c4.3-2,9.2-5.6,9.6-10.3S147.6,137.3,143,136.1z"/>
	<path class="st12" d="M104.3,291.7h58.2l-0.2-3.7c0-0.8,0.2-1.6,0.6-2.3c1.7-3.3,2.3-7,1.8-10.7c-1.3-11.4-4.6-30.3-4.6-30.3
		c-0.4-9.2-0.3-10.3-0.5-18.9c0,0,8.7,10.5,15.5,17.9c4.1,4.4,10.7,5.7,16.1,3.1l35.1-26.6l-4.1-10.4l-34.5,14.8
		c-1.5-0.9-14.1-19-22.9-27.8c-5.6-5.6-13.1-8.9-21.1-9.1c-6.6-0.2-13.2,0.1-19.7,0.8c-9.8,1-17.5,8.9-18.3,18.7
		c-0.6,7.6-0.1,16.4-0.1,31.3c0,0-6.6,38.1-1.2,43.6c0.6,1.1,0.8,2.4,0.6,3.7c-0.5,1.9-0.8,3.8-0.9,5.7L104.3,291.7z"/>
	<path class="st5" d="M82.9,456.4l-2.5,10.2l13.4,1l-3.4-10.1L82.9,456.4z"/>
	<path class="st5" d="M152.4,460.9l-0.1-2l-8.9,0.5l0.1,6.6l1.2,0c5.2,0.2,26.5,0.5,30-0.6C178.5,464.2,152.4,460.9,152.4,460.9z"/>
</g>
</svg>
